<?xml version="1.0" standalone="no"?>
<svg xmlns:xlink="http://www.w3.org/1999/xlink" id="wave" style="transform:rotate(180deg); transition: 0.3s" viewBox="0 0 1440 360" version="1.1" xmlns="http://www.w3.org/2000/svg"><defs><linearGradient id="sw-gradient-0" x1="0" x2="0" y1="1" y2="0"><stop stop-color="rgba(133, 109, 33, 1)" offset="0%"/><stop stop-color="rgba(202, 184, 127, 1)" offset="100%"/></linearGradient></defs><path style="transform:translate(0, 0px); opacity:1" fill="url(#sw-gradient-0)" d="M0,216L240,192C480,168,960,120,1440,114C1920,108,2400,144,2880,138C3360,132,3840,84,4320,90C4800,96,5280,156,5760,162C6240,168,6720,120,7200,132C7680,144,8160,216,8640,210C9120,204,9600,120,10080,90C10560,60,11040,84,11520,132C12000,180,12480,252,12960,234C13440,216,13920,108,14400,90C14880,72,15360,144,15840,168C16320,192,16800,168,17280,162C17760,156,18240,168,18720,192C19200,216,19680,252,20160,258C20640,264,21120,240,21600,198C22080,156,22560,96,23040,72C23520,48,24000,60,24480,66C24960,72,25440,72,25920,60C26400,48,26880,24,27360,30C27840,36,28320,72,28800,108C29280,144,29760,180,30240,216C30720,252,31200,288,31680,294C32160,300,32640,276,33120,246C33600,216,34080,180,34320,162L34560,144L34560,360L34320,360C34080,360,33600,360,33120,360C32640,360,32160,360,31680,360C31200,360,30720,360,30240,360C29760,360,29280,360,28800,360C28320,360,27840,360,27360,360C26880,360,26400,360,25920,360C25440,360,24960,360,24480,360C24000,360,23520,360,23040,360C22560,360,22080,360,21600,360C21120,360,20640,360,20160,360C19680,360,19200,360,18720,360C18240,360,17760,360,17280,360C16800,360,16320,360,15840,360C15360,360,14880,360,14400,360C13920,360,13440,360,12960,360C12480,360,12000,360,11520,360C11040,360,10560,360,10080,360C9600,360,9120,360,8640,360C8160,360,7680,360,7200,360C6720,360,6240,360,5760,360C5280,360,4800,360,4320,360C3840,360,3360,360,2880,360C2400,360,1920,360,1440,360C960,360,480,360,240,360L0,360Z"/><defs><linearGradient id="sw-gradient-1" x1="0" x2="0" y1="1" y2="0"><stop stop-color="rgba(133, 109, 33, 1)" offset="0%"/><stop stop-color="rgba(202, 184, 127, 1)" offset="100%"/></linearGradient></defs><path style="transform:translate(0, 50px); opacity:0.9" fill="url(#sw-gradient-1)" d="M0,216L240,204C480,192,960,168,1440,180C1920,192,2400,240,2880,240C3360,240,3840,192,4320,156C4800,120,5280,96,5760,90C6240,84,6720,96,7200,126C7680,156,8160,204,8640,204C9120,204,9600,156,10080,138C10560,120,11040,132,11520,114C12000,96,12480,48,12960,42C13440,36,13920,72,14400,90C14880,108,15360,108,15840,96C16320,84,16800,60,17280,60C17760,60,18240,84,18720,126C19200,168,19680,228,20160,216C20640,204,21120,120,21600,84C22080,48,22560,60,23040,102C23520,144,24000,216,24480,252C24960,288,25440,288,25920,246C26400,204,26880,120,27360,120C27840,120,28320,204,28800,222C29280,240,29760,192,30240,156C30720,120,31200,96,31680,126C32160,156,32640,240,33120,270C33600,300,34080,276,34320,264L34560,252L34560,360L34320,360C34080,360,33600,360,33120,360C32640,360,32160,360,31680,360C31200,360,30720,360,30240,360C29760,360,29280,360,28800,360C28320,360,27840,360,27360,360C26880,360,26400,360,25920,360C25440,360,24960,360,24480,360C24000,360,23520,360,23040,360C22560,360,22080,360,21600,360C21120,360,20640,360,20160,360C19680,360,19200,360,18720,360C18240,360,17760,360,17280,360C16800,360,16320,360,15840,360C15360,360,14880,360,14400,360C13920,360,13440,360,12960,360C12480,360,12000,360,11520,360C11040,360,10560,360,10080,360C9600,360,9120,360,8640,360C8160,360,7680,360,7200,360C6720,360,6240,360,5760,360C5280,360,4800,360,4320,360C3840,360,3360,360,2880,360C2400,360,1920,360,1440,360C960,360,480,360,240,360L0,360Z"/></svg>