<?xml version="1.0" encoding="utf-8"?>
<!-- Generator: Adobe Illustrator 22.0.0, SVG Export Plug-In . SVG Version: 6.00 Build 0)  -->
<svg version="1.1" id="Capa_1" xmlns="http://www.w3.org/2000/svg" xmlns:xlink="http://www.w3.org/1999/xlink" x="0px" y="0px"
	 viewBox="0 0 247.6 77.5" style="enable-background:new 0 0 247.6 77.5;" xml:space="preserve">
<style type="text/css">
	.st0{fill:#FFFFFF;}
	.st1{fill:#121433;}
	.st2{fill:#A68829;}
	.st3{fill:#221F20;}
</style>
<g>
	<g>
		<path class="st0" d="M17.7,44.3c-0.5,0.1-0.9,0.2-1.1,0.4c-0.2,0.2-0.4,0.5-0.5,0.8c-0.1,0.4-0.1,1-0.1,1.7v5.9
			c0,2.1-0.3,3.7-0.9,4.7c-0.4,0.7-1,1.2-1.7,1.5c-0.8,0.4-1.7,0.5-2.8,0.5c-1.7,0-3.1-0.4-4-1.1c-0.7-0.5-1.1-1.2-1.4-2.1
			c-0.2-0.8-0.4-2-0.4-3.5v-7c0-0.6,0-1-0.1-1.2c-0.1-0.3-0.2-0.4-0.5-0.5c-0.2-0.1-0.6-0.1-1.1-0.2v-0.4c0.8,0,1.9,0.1,3.5,0.1
			c1.5,0,2.7,0,3.5-0.1v0.4c-0.5,0-0.9,0.1-1.2,0.2c-0.2,0.1-0.4,0.3-0.5,0.5c-0.1,0.3-0.1,0.7-0.1,1.2v8.4c0,1.6,0.2,2.7,0.7,3.4
			s1.3,1.1,2.4,1.1c1.5,0,2.5-0.5,3.1-1.5c0.6-1,0.9-2.4,0.9-4.3v-5.9c0-0.9-0.1-1.5-0.2-1.9c-0.1-0.4-0.3-0.7-0.6-0.9
			c-0.3-0.2-0.8-0.3-1.4-0.4v-0.4c0.6,0,1.4,0.1,2.4,0.1c0.8,0,1.5,0,1.9-0.1V44.3z"/>
		<path class="st0" d="M22.3,57c0.3,0.3,0.5,0.7,0.5,1.3s-0.2,1-0.5,1.3C22,59.8,21.5,60,21,60c-0.6,0-1-0.2-1.4-0.5
			c-0.3-0.3-0.5-0.7-0.5-1.3s0.2-1,0.5-1.3c0.3-0.3,0.8-0.5,1.4-0.5C21.5,56.5,22,56.7,22.3,57z"/>
		<path class="st0" d="M37.9,44.3c-0.5,0-0.9,0.1-1.1,0.2c-0.2,0.1-0.4,0.3-0.5,0.5c-0.1,0.3-0.1,0.7-0.1,1.2v11.1
			c0,0.6,0,1,0.1,1.2c0.1,0.3,0.2,0.4,0.5,0.5c0.2,0.1,0.6,0.1,1.1,0.2v0.4c-0.8,0-1.9-0.1-3.4-0.1c-1.6,0-2.8,0-3.5,0.1v-0.4
			c0.5,0,0.9-0.1,1.1-0.2c0.2-0.1,0.4-0.3,0.5-0.5c0.1-0.3,0.1-0.7,0.1-1.2V46.2c0-0.6,0-1-0.1-1.2c-0.1-0.3-0.2-0.4-0.5-0.5
			c-0.2-0.1-0.6-0.1-1.1-0.2v-0.4c0.8,0,1.9,0.1,3.5,0.1c1.4,0,2.6,0,3.4-0.1V44.3z"/>
		<path class="st0" d="M54.6,44.3c-0.5,0.1-0.9,0.2-1.1,0.4c-0.2,0.2-0.4,0.5-0.5,0.8c-0.1,0.4-0.1,1-0.1,1.7v12.4l-0.5,0l-0.6,0
			l-9.7-12.3V56c0,0.9,0,1.5,0.1,1.9c0.1,0.4,0.3,0.7,0.6,0.9c0.3,0.2,0.8,0.3,1.4,0.4v0.4c-0.6,0-1.4-0.1-2.4-0.1
			c-0.8,0-1.5,0-1.9,0.1v-0.4c0.5-0.1,0.9-0.2,1.1-0.4c0.2-0.2,0.4-0.5,0.5-0.8c0.1-0.4,0.1-1,0.1-1.7v-10c0-0.6,0-1-0.1-1.2
			c-0.1-0.3-0.2-0.4-0.5-0.5c-0.2-0.1-0.6-0.1-1.1-0.2v-0.4c0.5,0,1.1,0.1,1.9,0.1c0.7,0,1.4,0,1.9-0.1l8.6,10.6v-7
			c0-0.9,0-1.5-0.1-1.9c-0.1-0.4-0.3-0.7-0.6-0.9c-0.3-0.2-0.8-0.3-1.4-0.4v-0.4c0.6,0,1.4,0.1,2.4,0.1c0.8,0,1.5,0,1.9-0.1V44.3z"
			/>
		<path class="st0" d="M70.1,47.7c0,0.7,0,1.3,0.1,1.7h-0.5c-0.4-1.8-0.8-3.1-1.5-3.9c-0.6-0.7-1.5-1.1-2.5-1.1h-0.5v12.7
			c0,0.6,0.1,1.1,0.2,1.4c0.1,0.3,0.3,0.5,0.7,0.6c0.3,0.1,0.8,0.2,1.5,0.2v0.4c-1.9,0-3.3-0.1-4.2-0.1c-0.9,0-2.3,0-4.1,0.1v-0.4
			c0.7,0,1.2-0.1,1.5-0.2c0.3-0.1,0.5-0.3,0.7-0.6c0.1-0.3,0.2-0.7,0.2-1.4V44.4h-0.5c-0.7,0-1.3,0.2-1.8,0.5
			c-0.5,0.3-0.9,0.8-1.3,1.5c-0.4,0.7-0.7,1.7-0.9,3h-0.5c0-0.4,0.1-1,0.1-1.7c0-1.1-0.1-2.4-0.2-3.8c1.4,0,3.6,0.1,6.9,0.1
			c3.2,0,5.5,0,6.9-0.1C70.1,45.3,70.1,46.5,70.1,47.7z"/>
		<path class="st0" d="M84.5,59.6c-1,0-2.7-0.1-5.1-0.1c-3.2,0-5.7,0-7.3,0.1v-0.4c0.5,0,0.9-0.1,1.1-0.2s0.4-0.3,0.5-0.5
			c0.1-0.3,0.1-0.7,0.1-1.2V46.2c0-0.6,0-1-0.1-1.2c-0.1-0.3-0.2-0.4-0.5-0.5c-0.2-0.1-0.6-0.1-1.1-0.2v-0.4c1.6,0,4,0.1,7.3,0.1
			c2.2,0,3.7,0,4.7-0.1c-0.1,1.2-0.2,2.3-0.2,3.3c0,0.7,0,1.2,0.1,1.5h-0.5c-0.2-1.6-0.6-2.7-1.2-3.3c-0.6-0.6-1.4-1-2.5-1h-0.9
			c-0.5,0-0.8,0-1,0.1c-0.2,0.1-0.3,0.2-0.4,0.4c-0.1,0.2-0.1,0.6-0.1,1v5.5h0.7c0.8,0,1.4-0.3,1.8-0.9c0.4-0.6,0.7-1.3,0.9-2.1h0.5
			c0,0.6-0.1,1.3-0.1,2.1v1.1c0,0.8,0,1.8,0.1,3.2h-0.5c-0.3-2-1.2-2.9-2.7-2.9h-0.7v5.6c0,0.5,0,0.8,0.1,1c0.1,0.2,0.2,0.4,0.4,0.4
			c0.2,0.1,0.5,0.1,1,0.1H80c1.1,0,1.9-0.4,2.6-1.1c0.6-0.7,1.1-1.9,1.4-3.7h0.5c0,0.5-0.1,1.1-0.1,1.9
			C84.3,57.6,84.4,58.8,84.5,59.6z"/>
		<path class="st0" d="M101.7,58.7c-0.4,0.5-0.8,0.8-1.3,1c-0.5,0.2-1,0.3-1.7,0.3c-0.9,0-1.5-0.2-2-0.5c-0.5-0.4-0.8-1-1-1.9
			l-0.4-2.2c-0.2-1.1-0.4-1.9-0.7-2.4c-0.3-0.5-0.7-0.8-1.4-0.8h-1.4v5.1c0,0.6,0,1,0.1,1.2c0.1,0.3,0.2,0.4,0.5,0.5
			c0.2,0.1,0.6,0.1,1.1,0.2v0.4c-0.8,0-1.9-0.1-3.4-0.1c-1.6,0-2.8,0-3.5,0.1v-0.4c0.5,0,0.9-0.1,1.1-0.2c0.2-0.1,0.4-0.3,0.5-0.5
			c0.1-0.3,0.1-0.7,0.1-1.2V46.2c0-0.6,0-1-0.1-1.2c-0.1-0.3-0.2-0.4-0.5-0.5c-0.2-0.1-0.6-0.1-1.1-0.2v-0.4c0.8,0,1.9,0.1,3.4,0.1
			l2.5,0c0.3,0,0.6,0,1,0c2.1,0,3.6,0.3,4.6,1c1,0.7,1.5,1.6,1.5,2.9c0,1.1-0.4,2-1.2,2.8c-0.8,0.8-2.1,1.3-3.8,1.5
			c1.3,0.1,2.3,0.4,3,0.9c0.7,0.5,1.1,1.2,1.3,2.1l0.5,2.3c0.1,0.6,0.3,1,0.4,1.2c0.2,0.2,0.4,0.4,0.7,0.4c0.2,0,0.3-0.1,0.5-0.1
			c0.1-0.1,0.3-0.2,0.4-0.4L101.7,58.7z M92.3,44.5C92.2,44.6,92,44.8,92,45c-0.1,0.3-0.1,0.7-0.1,1.2v5.5h1c1.2,0,2.1-0.3,2.5-1
			c0.5-0.6,0.7-1.6,0.7-2.7c0-1.2-0.2-2.1-0.6-2.8c-0.4-0.6-1.1-0.9-2.1-0.9C92.8,44.3,92.5,44.4,92.3,44.5z"/>
		<path class="st0" d="M117.8,44.3c-0.5,0.1-0.9,0.2-1.1,0.4c-0.2,0.2-0.4,0.5-0.5,0.8c-0.1,0.4-0.1,1-0.1,1.7v12.4l-0.5,0l-0.6,0
			l-9.7-12.3V56c0,0.9,0,1.5,0.1,1.9c0.1,0.4,0.3,0.7,0.6,0.9c0.3,0.2,0.8,0.3,1.4,0.4v0.4c-0.6,0-1.4-0.1-2.4-0.1
			c-0.8,0-1.5,0-1.9,0.1v-0.4c0.5-0.1,0.9-0.2,1.1-0.4c0.2-0.2,0.4-0.5,0.5-0.8c0.1-0.4,0.1-1,0.1-1.7v-10c0-0.6,0-1-0.1-1.2
			c-0.1-0.3-0.2-0.4-0.5-0.5c-0.2-0.1-0.6-0.1-1.1-0.2v-0.4c0.5,0,1.1,0.1,1.9,0.1c0.7,0,1.4,0,1.9-0.1l8.6,10.6v-7
			c0-0.9,0-1.5-0.1-1.9c-0.1-0.4-0.3-0.7-0.6-0.9c-0.3-0.2-0.8-0.3-1.4-0.4v-0.4c0.6,0,1.4,0.1,2.4,0.1c0.8,0,1.5,0,1.9-0.1V44.3z"
			/>
		<path class="st0" d="M133,58.8c0.3,0.2,0.5,0.3,0.7,0.4v0.4c-0.9,0-2-0.1-3.4-0.1c-1.5,0-2.6,0-3.4,0.1v-0.4c0.6,0,1-0.1,1.2-0.2
			c0.2-0.1,0.4-0.3,0.4-0.6c0-0.3-0.1-0.6-0.3-1.1l-1.3-3.7H122l-0.6,1.5c-0.4,1.1-0.6,1.9-0.6,2.5c0,0.6,0.2,0.9,0.5,1.1
			c0.3,0.2,0.8,0.3,1.5,0.4v0.4c-1,0-1.9-0.1-2.8-0.1c-0.7,0-1.2,0-1.7,0.1v-0.4c0.7-0.1,1.4-0.9,1.9-2.3l5.1-13c0.2,0,0.4,0,0.8,0
			c0.4,0,0.6,0,0.8,0l5.4,14C132.5,58.3,132.7,58.6,133,58.8z M126.8,53.2l-2.2-6l-2.3,6H126.8z"/>
		<path class="st0" d="M144.1,43.9c0.6,0.3,1.2,0.6,1.8,1.1c0.2,0.1,0.3,0.2,0.4,0.2c0.3,0,0.5-0.4,0.6-1.3h0.5
			c-0.1,1-0.1,2.8-0.1,5.4h-0.5c-0.1-1.1-0.3-1.9-0.5-2.5c-0.2-0.6-0.6-1.1-1.1-1.5c-0.4-0.4-0.8-0.6-1.3-0.8
			c-0.5-0.2-1-0.3-1.5-0.3c-1.5,0-2.6,0.7-3.3,2.2c-0.7,1.5-1.1,3.3-1.1,5.5c0,2.2,0.4,4,1.1,5.4c0.8,1.5,1.9,2.2,3.4,2.2
			c0.5,0,1-0.1,1.5-0.3c0.5-0.2,0.9-0.5,1.3-0.8c0.5-0.4,0.9-0.9,1.1-1.6c0.2-0.6,0.4-1.5,0.5-2.7h0.5c0,2.7,0,4.6,0.1,5.6h-0.5
			c0-0.5-0.1-0.8-0.2-1c-0.1-0.2-0.2-0.3-0.3-0.3c-0.1,0-0.3,0.1-0.5,0.2c-0.7,0.5-1.3,0.8-1.9,1.1c-0.6,0.2-1.3,0.4-2.2,0.4
			c-1.6,0-3-0.3-4.1-1c-1.2-0.6-2.1-1.6-2.8-2.8c-0.7-1.2-1-2.7-1-4.3c0-1.6,0.3-3.1,1-4.3c0.7-1.3,1.6-2.2,2.8-2.9
			c1.2-0.7,2.6-1,4.1-1C142.7,43.6,143.5,43.7,144.1,43.9z"/>
		<path class="st0" d="M156.6,44.3c-0.5,0-0.9,0.1-1.1,0.2c-0.2,0.1-0.4,0.3-0.5,0.5c-0.1,0.3-0.1,0.7-0.1,1.2v11.1
			c0,0.6,0,1,0.1,1.2c0.1,0.3,0.2,0.4,0.5,0.5c0.2,0.1,0.6,0.1,1.1,0.2v0.4c-0.8,0-1.9-0.1-3.4-0.1c-1.6,0-2.8,0-3.5,0.1v-0.4
			c0.5,0,0.9-0.1,1.1-0.2s0.4-0.3,0.5-0.5c0.1-0.3,0.1-0.7,0.1-1.2V46.2c0-0.6,0-1-0.1-1.2c-0.1-0.3-0.2-0.4-0.5-0.5
			c-0.2-0.1-0.6-0.1-1.1-0.2v-0.4c0.8,0,1.9,0.1,3.5,0.1c1.4,0,2.6,0,3.4-0.1V44.3z"/>
		<path class="st0" d="M170.2,44.5c1.2,0.6,2.1,1.6,2.8,2.8c0.7,1.2,1,2.7,1,4.3c0,1.6-0.3,3.1-1,4.3c-0.7,1.3-1.6,2.2-2.8,2.9
			c-1.2,0.7-2.6,1-4.1,1c-1.6,0-3-0.3-4.1-1c-1.2-0.6-2.1-1.6-2.8-2.8c-0.7-1.2-1-2.7-1-4.3c0-1.6,0.3-3.1,1-4.3
			c0.7-1.3,1.6-2.2,2.8-2.9c1.2-0.7,2.6-1,4.1-1C167.6,43.6,169,43.9,170.2,44.5z M163.8,44.9c-0.6,0.7-1.1,1.6-1.4,2.8
			c-0.3,1.2-0.5,2.5-0.5,4.1c0,1.5,0.2,2.9,0.6,4.1c0.4,1.2,0.9,2.1,1.5,2.7c0.6,0.6,1.4,1,2.2,1c0.8,0,1.5-0.3,2.2-1
			c0.6-0.7,1.1-1.6,1.4-2.8c0.3-1.2,0.5-2.5,0.5-4.1c0-1.5-0.2-2.9-0.6-4.1c-0.4-1.2-0.9-2.1-1.5-2.7c-0.6-0.6-1.4-1-2.2-1
			C165.2,44,164.4,44.3,163.8,44.9z"/>
		<path class="st0" d="M190.2,44.3c-0.5,0.1-0.9,0.2-1.1,0.4c-0.2,0.2-0.4,0.5-0.5,0.8c-0.1,0.4-0.1,1-0.1,1.7v12.4l-0.5,0l-0.6,0
			l-9.7-12.3V56c0,0.9,0,1.5,0.1,1.9c0.1,0.4,0.3,0.7,0.6,0.9c0.3,0.2,0.8,0.3,1.4,0.4v0.4c-0.6,0-1.4-0.1-2.4-0.1
			c-0.8,0-1.5,0-1.9,0.1v-0.4c0.5-0.1,0.9-0.2,1.1-0.4c0.2-0.2,0.4-0.5,0.5-0.8c0.1-0.4,0.1-1,0.1-1.7v-10c0-0.6,0-1-0.1-1.2
			c-0.1-0.3-0.2-0.4-0.5-0.5c-0.2-0.1-0.6-0.1-1.1-0.2v-0.4c0.5,0,1.1,0.1,1.9,0.1c0.7,0,1.4,0,1.9-0.1l8.6,10.6v-7
			c0-0.9,0-1.5-0.1-1.9c-0.1-0.4-0.3-0.7-0.6-0.9c-0.3-0.2-0.8-0.3-1.4-0.4v-0.4c0.6,0,1.4,0.1,2.4,0.1c0.8,0,1.5,0,1.9-0.1V44.3z"
			/>
		<path class="st0" d="M205.4,58.8c0.3,0.2,0.5,0.3,0.7,0.4v0.4c-0.9,0-2-0.1-3.4-0.1c-1.5,0-2.6,0-3.4,0.1v-0.4
			c0.6,0,1-0.1,1.2-0.2c0.2-0.1,0.4-0.3,0.4-0.6c0-0.3-0.1-0.6-0.3-1.1l-1.3-3.7h-4.9l-0.6,1.5c-0.4,1.1-0.6,1.9-0.6,2.5
			c0,0.6,0.2,0.9,0.5,1.1c0.3,0.2,0.8,0.3,1.5,0.4v0.4c-1,0-1.9-0.1-2.8-0.1c-0.7,0-1.2,0-1.7,0.1v-0.4c0.7-0.1,1.4-0.9,1.9-2.3
			l5.1-13c0.2,0,0.4,0,0.8,0c0.4,0,0.6,0,0.8,0l5.4,14C204.9,58.3,205.1,58.6,205.4,58.8z M199.1,53.2l-2.2-6l-2.3,6H199.1z"/>
		<path class="st0" d="M214.7,44.3c-0.5,0-0.9,0.1-1.2,0.2c-0.2,0.1-0.4,0.3-0.5,0.5c-0.1,0.3-0.1,0.7-0.1,1.2v11.3
			c0,0.5,0,0.8,0.1,1c0.1,0.2,0.2,0.4,0.4,0.4c0.2,0.1,0.5,0.1,0.9,0.1h1.1c1,0,1.9-0.5,2.6-1.4c0.7-0.9,1.2-2.1,1.4-3.6h0.5
			c0,0.5-0.1,1.2-0.1,2c0,1.4,0.1,2.6,0.2,3.5c-1,0-2.7-0.1-5.1-0.1c-3.2,0-5.7,0-7.3,0.1v-0.4c0.5,0,0.9-0.1,1.1-0.2
			c0.2-0.1,0.4-0.3,0.5-0.5c0.1-0.3,0.1-0.7,0.1-1.2V46.2c0-0.6,0-1-0.1-1.2c-0.1-0.3-0.2-0.4-0.5-0.5c-0.2-0.1-0.6-0.1-1.1-0.2
			v-0.4c0.8,0,1.9,0.1,3.5,0.1c1.5,0,2.7,0,3.5-0.1V44.3z"/>
	</g>
	<g>
		<path class="st0" d="M95.8,73.5h-4.1L91,75.1h-1.3l3.4-7.6h1.3l3.4,7.6h-1.3L95.8,73.5z M93.8,68.8l-1.6,3.6h3.2L93.8,68.8z"/>
		<path class="st0" d="M106.2,69.2c-0.5-0.5-1.3-0.8-2.1-0.8c-1.8,0-2.8,1.3-2.8,2.9c0,1.4,0.8,2.7,2.8,2.7c0.7,0,1.2-0.2,1.9-0.7
			v-1.5h-2.1v-1.1h3.2v3.1c-0.8,0.8-1.7,1.3-3,1.3c-2.8,0-4-1.9-4-3.9c0-2.2,1.4-4.1,4-4.1c1,0,2,0.4,2.8,1.2L106.2,69.2z"/>
		<path class="st0" d="M117.2,67.5v4.4c0,2.2-1.5,3.4-3.3,3.3c-1.7,0-3.1-1.1-3.1-3.3v-4.4h1.2v4.4c0,1.4,0.8,2.1,1.9,2.2
			c1.2,0.1,2.1-0.7,2.1-2.2v-4.4H117.2z"/>
		<path class="st0" d="M126,73.5h-4.1l-0.7,1.6h-1.3l3.4-7.6h1.3l3.4,7.6h-1.3L126,73.5z M123.9,68.8l-1.6,3.6h3.2L123.9,68.8z"/>
		<path class="st0" d="M135.7,69.2c-0.4-0.5-1.1-0.8-1.9-0.8c-1,0-1.8,0.4-1.8,1.2c0,0.7,0.8,0.9,1.8,1.1c1.6,0.2,3.1,0.7,3.1,2.4
			c0,1.7-1.6,2.3-3.2,2.3c-1.5,0-2.6-0.4-3.3-1.7l0.9-0.6c0.5,0.9,1.5,1.2,2.4,1.2c0.9,0,1.9-0.3,1.9-1.3c0-0.8-0.9-1.1-1.9-1.2
			c-1.5-0.2-2.9-0.6-2.9-2.2c0-1.6,1.6-2.2,2.9-2.2c1.1,0,2.2,0.3,2.8,1.3L135.7,69.2z"/>
		<path class="st0" d="M146.8,74.1c-0.8,0.8-1.8,1.1-2.9,1.1c-2.8,0-4-1.9-4-3.9c0-2,1.3-4,4-4c1,0,2,0.4,2.8,1.2l-0.8,0.8
			c-0.5-0.5-1.3-0.8-2-0.8c-1.9,0-2.8,1.4-2.8,2.8c0,1.4,0.8,2.8,2.8,2.8c0.7,0,1.5-0.3,2-0.8L146.8,74.1z"/>
		<path class="st0" d="M155.6,73.5h-4.1l-0.7,1.6h-1.3l3.4-7.6h1.3l3.4,7.6h-1.3L155.6,73.5z M153.5,68.8l-1.6,3.6h3.2L153.5,68.8z"
			/>
		<path class="st0" d="M162,67.5V74h4v1.1h-5.2v-7.6H162z"/>
		<path class="st0" d="M169.2,75.1v-7.6h1.2v7.6H169.2z"/>
		<path class="st0" d="M180,75.1h-5.6c0-2.5,0-5.1,0-7.6h5.6v1.2h-4.4v2.1h4.2v1.1h-4.2v2h4.4V75.1z"/>
		<path class="st0" d="M188.9,72.9v-5.4h1.2v7.6h-0.9l-4.3-5.4v5.4h-1.2v-7.6h0.9L188.9,72.9z"/>
		<path class="st0" d="M195.8,68.6h-2.5v-1.1c2.2,0,4,0,6.2,0v1.1H197v6.5h-1.2V68.6z"/>
		<path class="st0" d="M208.3,75.1h-5.6c0-2.5,0-5.1,0-7.6h5.6v1.2h-4.4v2.1h4.2v1.1h-4.2v2h4.4V75.1z"/>
		<path class="st0" d="M216.5,69.2c-0.4-0.5-1.1-0.8-1.9-0.8c-1,0-1.8,0.4-1.8,1.2c0,0.7,0.8,0.9,1.8,1.1c1.6,0.2,3.1,0.7,3.1,2.4
			c0,1.7-1.6,2.3-3.2,2.3c-1.5,0-2.6-0.4-3.3-1.7l0.9-0.6c0.5,0.9,1.5,1.2,2.4,1.2c0.9,0,1.9-0.3,1.9-1.3c0-0.8-0.9-1.1-1.9-1.2
			c-1.5-0.2-2.9-0.6-2.9-2.2c0-1.6,1.6-2.2,2.9-2.2c1.1,0,2.2,0.3,2.8,1.3L216.5,69.2z"/>
	</g>
	<g>
		<path class="st0" d="M237.1,16.9c1.4,1.9,1.9,3.3,1.7,3.4c-0.1,0.1-1-1.1-2.3-3c-1.4-1.9-2.3-3.5-2.1-3.6
			C234.5,13.6,235.8,15.1,237.1,16.9z"/>
		<ellipse transform="matrix(0.92 -0.392 0.392 0.92 9.2335 96.3804)" class="st0" cx="240.7" cy="25.6" rx="0.9" ry="4.6"/>
		<ellipse transform="matrix(0.9669 -0.255 0.255 0.9669 -1.1088 63.1788)" class="st0" cx="243.1" cy="35.9" rx="1.4" ry="4.9"/>
		
			<ellipse transform="matrix(0.9988 -4.854361e-02 4.854361e-02 0.9988 -2.0063 11.9191)" class="st0" cx="244.4" cy="47.3" rx="1.7" ry="5"/>
		<ellipse transform="matrix(0.1864 -0.9825 0.9825 0.1864 139.2929 288.5243)" class="st0" cx="243.9" cy="60.2" rx="5" ry="1.8"/>
		<ellipse transform="matrix(0.3554 -0.9347 0.9347 0.3554 89.63 271.8928)" class="st0" cx="241.9" cy="71" rx="4.7" ry="1.4"/>
		<path class="st0" d="M240,33.1c1,2.8,0.6,5.6-1,6.1c-1.5,0.5-3.9-1.1-4.9-4c-1-2.8-0.3-5.7,1.2-6.3C236.9,28.4,239,30.3,240,33.1z
			"/>
		<path class="st0" d="M231.9,31.2c1.1,3,0.2,6.1-2,6.9c-2.2,0.8-5.3-0.6-6.7-4c-1.2-3-0.2-6.5,2.5-7.1
			C228,26.5,230.8,28.2,231.9,31.2z"/>
		<path class="st0" d="M229.1,18.2c1.7,2.6,1.7,5.5,0.1,6.6c-1.6,1.1-4.6,0.3-6.6-2.6c-1.8-2.5-1.8-5.8,0.3-6.8
			C224.6,14.5,227.4,15.6,229.1,18.2z"/>
		<path class="st0" d="M225,7.8c2.6,2.3,2.9,4.3,2,5.3s-3.4,0.7-5.8-1.5c-2.1-1.9-3.1-4.6-1.8-5.6C220.5,5.2,222.9,5.9,225,7.8z"/>
		<path class="st0" d="M220.4,29.9c1.1,3.2,0,6.6-2.6,7.4c-3,1-6.7-0.7-7.9-3.9c-1.1-3.2,0.1-7.1,3.5-7.8
			C216.1,25.1,219.3,26.7,220.4,29.9z"/>
		<path class="st0" d="M218.5,16.3c1.6,2.6,1.4,5-0.8,6.7c-2,1.6-6.4,0.2-8-2.6s-1.7-5.7,1-7C212.7,12.4,216.6,13.2,218.5,16.3z"/>
		<path class="st0" d="M214.9,4.8c2.3,2,3.5,3.7,2.6,5.5c-0.8,1.7-4.9,1.4-7.4-0.4c-2.5-1.9-3.8-4.3-2.3-6.2
			C208.8,2.5,212.1,2.4,214.9,4.8z"/>
		<path class="st0" d="M203.5,12.8c2.1,1.4,4,4.2,2.2,7.3c-1.4,2.4-5.7,3.2-8.4,1.5c-2.7-1.7-4.1-4.7-2.5-7.4
			C196.4,11.7,200.9,11,203.5,12.8z"/>
		<path class="st0" d="M187.2,11.9c2.7,1.3,4,4.4,2.1,7.7c-1.4,2.5-6.3,3.4-9,1.7c-2.7-1.7-3.3-4.6-1.6-7.5
			C180.4,11.3,184.4,10.5,187.2,11.9z"/>
		<path class="st0" d="M184.3,0.8c3-0.1,5.7,1.8,5.7,4.5c0,2.1-2.8,4.3-6.7,4.1c-3.1-0.1-5.1-1.8-5-4.2
			C178.6,2.6,181.2,0.8,184.3,0.8z"/>
		<path class="st0" d="M169.3,2.2c2.7-1,5.7-0.7,6.5,1.5c0.6,1.7-0.3,4.8-3.9,6c-2.9,1-6.1,0.1-6.7-1.9
			C164.6,5.6,166.5,3.3,169.3,2.2z"/>
		<path class="st0" d="M202.1,2.3c2.2,1.3,3.9,2.8,2.4,5.8c-0.9,1.8-5.2,2.8-8.5,0.3c-1.8-1.3-3.4-3.4-1.2-5.7
			C196.3,1.1,199.6,0.8,202.1,2.3z"/>
		<path class="st0" d="M206.8,29.1c1.2,3.3-0.3,6.8-3.2,7.8c-3.5,1.2-7.6-0.5-8.7-3.7c-1.2-3.3,0.3-7.3,4.2-8.2
			C202.2,24.3,205.7,25.8,206.8,29.1z"/>
		<path class="st0" d="M241.4,46.8c0.2,3.3-0.9,5.5-3.1,5.5c-1.7,0-3.5-2.3-3.6-5.3c0-3,1.1-5.6,3.4-5.6
			C239.9,41.4,241.2,43.8,241.4,46.8z"/>
		<path class="st0" d="M240.8,62c-0.7,3.3-2.3,5.1-4.4,4.5c-1.7-0.5-2.8-3.2-2-6.1c0.8-2.9,2.5-5.1,4.7-4.5
			C240.8,56.4,241.4,59.1,240.8,62z"/>
		<path class="st0" d="M237,21.4c1.6,2.9,1.2,5.2,0.3,5.7c-0.9,0.5-3.3-0.9-4.6-3.3c-1.3-2.5-1.4-5.3-0.3-5.9
			C233.4,17.5,235.7,19,237,21.4z"/>
		<path class="st0" d="M232.6,12.1c2.3,2.6,2.5,4.2,2,4.6c-0.5,0.4-2.6-0.9-4.2-3s-2.4-4.2-1.7-4.6C229.2,8.7,230.8,10.2,232.6,12.1
			z"/>
		<ellipse class="st0" cx="228.3" cy="46.6" rx="4.7" ry="5.9"/>
	</g>
</g>
</svg>
