<?xml version="1.0" encoding="utf-8"?>
<!-- Generator: Adobe Illustrator 22.0.0, SVG Export Plug-In . SVG Version: 6.00 Build 0)  -->
<svg version="1.1" id="Capa_1" xmlns="http://www.w3.org/2000/svg" xmlns:xlink="http://www.w3.org/1999/xlink" x="0px" y="0px"
	 viewBox="0 0 247.6 77.5" style="enable-background:new 0 0 247.6 77.5;" xml:space="preserve">
<style type="text/css">
	.st0{fill:#FFFFFF;}
	.st1{fill:#121433;}
	.st2{fill:#A68829;}
	.st3{fill:#221F20;}
</style>
<g>
	<g>
		<path class="st1" d="M16.1,44.7c-0.5,0.1-0.9,0.2-1.1,0.4c-0.2,0.2-0.4,0.5-0.5,0.9c-0.1,0.4-0.1,1-0.1,1.7v6
			c0,2.1-0.3,3.7-0.9,4.8c-0.4,0.7-1,1.2-1.8,1.5c-0.8,0.4-1.7,0.6-2.8,0.6c-1.7,0-3.1-0.4-4-1.1c-0.7-0.6-1.2-1.3-1.4-2.1
			c-0.2-0.8-0.4-2-0.4-3.6v-7.1c0-0.6,0-1-0.1-1.2C3,45.1,2.8,45,2.6,44.9c-0.2-0.1-0.6-0.1-1.1-0.2v-0.4c0.8,0,1.9,0.1,3.5,0.1
			c1.6,0,2.7,0,3.6-0.1v0.4c-0.5,0-0.9,0.1-1.2,0.2C7.1,45,7,45.1,6.9,45.4c-0.1,0.3-0.1,0.7-0.1,1.2v8.5c0,1.6,0.2,2.7,0.7,3.5
			c0.5,0.7,1.3,1.1,2.4,1.1c1.5,0,2.6-0.5,3.2-1.5c0.6-1,0.9-2.4,0.9-4.3v-5.9c0-0.9-0.1-1.5-0.2-1.9c-0.1-0.4-0.3-0.7-0.6-0.9
			c-0.3-0.2-0.8-0.3-1.4-0.4v-0.4c0.6,0,1.4,0.1,2.4,0.1c0.8,0,1.5,0,2-0.1V44.7z"/>
		<path class="st1" d="M20.8,57.5c0.3,0.3,0.5,0.7,0.5,1.3c0,0.5-0.2,1-0.5,1.3c-0.3,0.3-0.8,0.5-1.4,0.5c-0.6,0-1-0.2-1.4-0.5
			c-0.3-0.3-0.5-0.7-0.5-1.3c0-0.5,0.2-1,0.5-1.3c0.3-0.3,0.8-0.5,1.4-0.5C20,57,20.4,57.1,20.8,57.5z"/>
		<path class="st1" d="M36.5,44.7c-0.5,0-0.9,0.1-1.1,0.2c-0.2,0.1-0.4,0.3-0.5,0.5c-0.1,0.3-0.1,0.7-0.1,1.2v11.1
			c0,0.6,0,1,0.1,1.2c0.1,0.3,0.2,0.4,0.5,0.5c0.2,0.1,0.6,0.1,1.1,0.2v0.4c-0.8,0-1.9-0.1-3.4-0.1c-1.6,0-2.8,0-3.5,0.1v-0.4
			c0.5,0,0.9-0.1,1.1-0.2c0.2-0.1,0.4-0.3,0.5-0.5c0.1-0.3,0.1-0.7,0.1-1.2V46.6c0-0.6,0-1-0.1-1.2c-0.1-0.3-0.2-0.4-0.5-0.5
			c-0.2-0.1-0.6-0.1-1.1-0.2v-0.4c0.8,0,1.9,0.1,3.5,0.1c1.5,0,2.6,0,3.4-0.1V44.7z"/>
		<path class="st1" d="M53.3,44.7c-0.5,0.1-0.9,0.2-1.1,0.4c-0.2,0.2-0.4,0.5-0.5,0.9c-0.1,0.4-0.1,1-0.1,1.7v12.5l-0.5,0l-0.6,0
			l-9.7-12.4v8.6c0,0.9,0,1.5,0.1,1.9c0.1,0.4,0.3,0.7,0.6,0.9c0.3,0.2,0.8,0.3,1.5,0.4v0.4c-0.6,0-1.4-0.1-2.4-0.1
			c-0.8,0-1.5,0-2,0.1v-0.4c0.5-0.1,0.9-0.2,1.1-0.4c0.2-0.2,0.4-0.5,0.5-0.9c0.1-0.4,0.1-1,0.1-1.7V46.6c0-0.6,0-1-0.1-1.2
			c-0.1-0.3-0.2-0.4-0.5-0.5c-0.2-0.1-0.6-0.1-1.1-0.2v-0.4c0.5,0,1.1,0.1,2,0.1c0.7,0,1.4,0,1.9-0.1L51.1,55v-7
			c0-0.9,0-1.5-0.1-1.9c-0.1-0.4-0.3-0.7-0.6-0.9c-0.3-0.2-0.8-0.3-1.5-0.4v-0.4c0.6,0,1.4,0.1,2.4,0.1c0.8,0,1.5,0,2-0.1V44.7z"/>
		<path class="st1" d="M68.9,48.1c0,0.7,0,1.3,0.1,1.7h-0.5c-0.4-1.8-0.9-3.1-1.5-3.9c-0.6-0.7-1.5-1.1-2.5-1.1h-0.5v12.8
			c0,0.6,0.1,1.1,0.2,1.4c0.1,0.3,0.4,0.5,0.7,0.6c0.3,0.1,0.8,0.2,1.5,0.2v0.4c-1.9,0-3.3-0.1-4.3-0.1c-0.9,0-2.3,0-4.1,0.1v-0.4
			c0.7,0,1.2-0.1,1.5-0.2c0.3-0.1,0.5-0.3,0.7-0.6c0.1-0.3,0.2-0.7,0.2-1.4V44.8h-0.5c-0.7,0-1.3,0.2-1.8,0.5
			c-0.5,0.3-0.9,0.8-1.3,1.6c-0.4,0.7-0.7,1.7-0.9,3h-0.5c0-0.4,0.1-1,0.1-1.7c0-1.1-0.1-2.4-0.2-3.8c1.4,0,3.7,0.1,6.9,0.1
			c3.3,0,5.6,0,6.9-0.1C68.9,45.7,68.9,46.9,68.9,48.1z"/>
		<path class="st1" d="M83.4,60.1c-1,0-2.7-0.1-5.1-0.1c-3.3,0-5.7,0-7.3,0.1v-0.4c0.5,0,0.9-0.1,1.1-0.2c0.2-0.1,0.4-0.3,0.5-0.5
			c0.1-0.3,0.1-0.7,0.1-1.2V46.6c0-0.6,0-1-0.1-1.2c-0.1-0.3-0.2-0.4-0.5-0.5c-0.2-0.1-0.6-0.1-1.1-0.2v-0.4c1.6,0,4.1,0.1,7.3,0.1
			c2.2,0,3.8,0,4.7-0.1c-0.1,1.2-0.2,2.4-0.2,3.3c0,0.7,0,1.2,0.1,1.5h-0.5c-0.2-1.6-0.6-2.7-1.2-3.4c-0.6-0.6-1.4-1-2.5-1h-0.9
			c-0.5,0-0.8,0-1,0.1c-0.2,0.1-0.4,0.2-0.4,0.4c-0.1,0.2-0.1,0.6-0.1,1v5.6h0.7c0.8,0,1.4-0.3,1.8-0.9c0.4-0.6,0.7-1.3,0.9-2.1h0.5
			c0,0.6-0.1,1.3-0.1,2.1v1.1c0,0.8,0,1.8,0.1,3.2h-0.5c-0.3-2-1.2-3-2.7-3h-0.7V58c0,0.5,0,0.8,0.1,1c0.1,0.2,0.2,0.4,0.4,0.4
			c0.2,0.1,0.5,0.1,1,0.1h1.1c1.1,0,1.9-0.4,2.6-1.1c0.7-0.7,1.1-2,1.4-3.7h0.5c0,0.5-0.1,1.1-0.1,1.9
			C83.3,58.1,83.3,59.2,83.4,60.1z"/>
		<path class="st1" d="M100.8,59.2c-0.4,0.5-0.8,0.8-1.3,1c-0.5,0.2-1,0.3-1.7,0.3c-0.9,0-1.6-0.2-2.1-0.6c-0.5-0.4-0.8-1-1-1.9
			l-0.4-2.2c-0.2-1.1-0.4-1.9-0.7-2.4c-0.3-0.5-0.7-0.8-1.4-0.8h-1.5v5.2c0,0.6,0,1,0.1,1.2c0.1,0.3,0.2,0.4,0.5,0.5
			c0.2,0.1,0.6,0.1,1.1,0.2v0.4c-0.8,0-1.9-0.1-3.4-0.1c-1.6,0-2.8,0-3.5,0.1v-0.4c0.5,0,0.9-0.1,1.1-0.2c0.2-0.1,0.4-0.3,0.5-0.5
			c0.1-0.3,0.1-0.7,0.1-1.2V46.6c0-0.6,0-1-0.1-1.2c-0.1-0.3-0.2-0.4-0.5-0.5c-0.2-0.1-0.6-0.1-1.1-0.2v-0.4c0.8,0,1.9,0.1,3.4,0.1
			l2.5,0c0.3,0,0.6,0,1,0c2.1,0,3.6,0.3,4.7,1c1,0.7,1.6,1.6,1.6,2.9c0,1.1-0.4,2-1.2,2.8c-0.8,0.8-2.1,1.3-3.9,1.5
			c1.3,0.1,2.4,0.4,3,0.9c0.7,0.5,1.1,1.2,1.3,2.1l0.5,2.3c0.1,0.6,0.3,1,0.4,1.3c0.2,0.2,0.4,0.4,0.7,0.4c0.2,0,0.3-0.1,0.5-0.1
			c0.1-0.1,0.3-0.2,0.4-0.4L100.8,59.2z M91.3,44.8c-0.2,0.1-0.3,0.3-0.4,0.6c-0.1,0.3-0.1,0.7-0.1,1.2v5.5h1c1.2,0,2.1-0.3,2.5-1
			c0.5-0.7,0.7-1.6,0.7-2.8c0-1.2-0.2-2.2-0.7-2.8c-0.4-0.6-1.1-0.9-2.1-0.9C91.8,44.7,91.5,44.7,91.3,44.8z"/>
		<path class="st1" d="M117,44.7c-0.5,0.1-0.9,0.2-1.1,0.4c-0.2,0.2-0.4,0.5-0.5,0.9c-0.1,0.4-0.1,1-0.1,1.7v12.5l-0.5,0l-0.6,0
			l-9.7-12.4v8.6c0,0.9,0,1.5,0.1,1.9c0.1,0.4,0.3,0.7,0.6,0.9c0.3,0.2,0.8,0.3,1.5,0.4v0.4c-0.6,0-1.4-0.1-2.4-0.1
			c-0.8,0-1.5,0-2,0.1v-0.4c0.5-0.1,0.9-0.2,1.1-0.4c0.2-0.2,0.4-0.5,0.5-0.9c0.1-0.4,0.1-1,0.1-1.7V46.6c0-0.6,0-1-0.1-1.2
			c-0.1-0.3-0.2-0.4-0.5-0.5c-0.2-0.1-0.6-0.1-1.1-0.2v-0.4c0.5,0,1.1,0.1,2,0.1c0.7,0,1.4,0,1.9-0.1l8.7,10.7v-7
			c0-0.9,0-1.5-0.1-1.9c-0.1-0.4-0.3-0.7-0.6-0.9c-0.3-0.2-0.8-0.3-1.5-0.4v-0.4c0.6,0,1.4,0.1,2.4,0.1c0.8,0,1.5,0,2-0.1V44.7z"/>
		<path class="st1" d="M132.3,59.3c0.3,0.2,0.5,0.3,0.7,0.4v0.4c-0.9,0-2-0.1-3.4-0.1c-1.5,0-2.7,0-3.4,0.1v-0.4
			c0.6,0,1-0.1,1.2-0.2c0.2-0.1,0.4-0.3,0.4-0.6c0-0.3-0.1-0.6-0.3-1.1l-1.3-3.7h-4.9l-0.6,1.6c-0.4,1.1-0.6,1.9-0.6,2.5
			c0,0.6,0.2,0.9,0.5,1.2c0.3,0.2,0.8,0.3,1.5,0.4v0.4c-1,0-1.9-0.1-2.8-0.1c-0.7,0-1.3,0-1.7,0.1v-0.4c0.7-0.1,1.4-0.9,1.9-2.4
			l5.1-13.1c0.2,0,0.4,0,0.8,0s0.6,0,0.8,0l5.5,14.1C131.8,58.7,132,59.1,132.3,59.3z M126,53.7l-2.2-6.1l-2.3,6.1H126z"/>
		<path class="st1" d="M143.5,44.3c0.6,0.3,1.2,0.6,1.8,1.1c0.2,0.1,0.3,0.2,0.4,0.2c0.3,0,0.5-0.4,0.6-1.3h0.5
			c-0.1,1-0.1,2.8-0.1,5.4h-0.5c-0.1-1.1-0.3-2-0.5-2.5c-0.2-0.6-0.6-1.1-1.1-1.5c-0.4-0.4-0.8-0.6-1.3-0.8c-0.5-0.2-1-0.3-1.6-0.3
			c-1.5,0-2.6,0.7-3.4,2.2c-0.7,1.5-1.1,3.3-1.1,5.5c0,2.2,0.4,4,1.1,5.5c0.8,1.5,1.9,2.2,3.4,2.2c0.5,0,1-0.1,1.5-0.3
			c0.5-0.2,0.9-0.5,1.3-0.8c0.6-0.4,0.9-0.9,1.2-1.6c0.2-0.6,0.4-1.6,0.5-2.8h0.5c0,2.7,0,4.6,0.1,5.7h-0.5c0-0.5-0.1-0.8-0.2-1
			c-0.1-0.2-0.2-0.3-0.3-0.3c-0.1,0-0.3,0.1-0.5,0.2c-0.7,0.5-1.3,0.8-1.9,1.1c-0.6,0.2-1.4,0.4-2.2,0.4c-1.6,0-3-0.3-4.2-1
			c-1.2-0.6-2.1-1.6-2.8-2.8c-0.7-1.2-1-2.7-1-4.4c0-1.6,0.3-3.1,1-4.4c0.7-1.3,1.6-2.3,2.8-3c1.2-0.7,2.6-1.1,4.1-1.1
			C142.1,43.9,142.9,44,143.5,44.3z"/>
		<path class="st1" d="M156.1,44.7c-0.5,0-0.9,0.1-1.1,0.2c-0.2,0.1-0.4,0.3-0.5,0.5c-0.1,0.3-0.1,0.7-0.1,1.2v11.1
			c0,0.6,0,1,0.1,1.2c0.1,0.3,0.2,0.4,0.5,0.5c0.2,0.1,0.6,0.1,1.1,0.2v0.4c-0.8,0-1.9-0.1-3.4-0.1c-1.6,0-2.8,0-3.5,0.1v-0.4
			c0.5,0,0.9-0.1,1.1-0.2c0.2-0.1,0.4-0.3,0.5-0.5c0.1-0.3,0.1-0.7,0.1-1.2V46.6c0-0.6,0-1-0.1-1.2c-0.1-0.3-0.2-0.4-0.5-0.5
			c-0.2-0.1-0.6-0.1-1.1-0.2v-0.4c0.8,0,1.9,0.1,3.5,0.1c1.5,0,2.6,0,3.4-0.1V44.7z"/>
		<path class="st1" d="M169.8,44.9c1.2,0.6,2.1,1.6,2.8,2.8c0.7,1.2,1,2.7,1,4.4c0,1.6-0.3,3.1-1,4.4c-0.7,1.3-1.6,2.3-2.8,3
			c-1.2,0.7-2.6,1.1-4.1,1.1c-1.6,0-3-0.3-4.2-1c-1.2-0.6-2.1-1.6-2.8-2.8c-0.7-1.2-1-2.7-1-4.4c0-1.6,0.3-3.1,1-4.4
			c0.7-1.3,1.6-2.3,2.8-3c1.2-0.7,2.6-1.1,4.1-1.1C167.2,43.9,168.6,44.2,169.8,44.9z M163.3,45.3c-0.6,0.7-1.1,1.6-1.4,2.8
			c-0.3,1.2-0.5,2.6-0.5,4.1c0,1.6,0.2,2.9,0.6,4.1c0.4,1.2,0.9,2.1,1.5,2.7c0.7,0.6,1.4,1,2.2,1c0.8,0,1.6-0.3,2.2-1
			c0.6-0.7,1.1-1.6,1.4-2.8c0.3-1.2,0.5-2.6,0.5-4.1c0-1.6-0.2-2.9-0.6-4.1c-0.4-1.2-0.9-2.1-1.6-2.7c-0.7-0.6-1.4-1-2.2-1
			C164.7,44.3,164,44.7,163.3,45.3z"/>
		<path class="st1" d="M189.9,44.7c-0.5,0.1-0.9,0.2-1.1,0.4c-0.2,0.2-0.4,0.5-0.5,0.9c-0.1,0.4-0.1,1-0.1,1.7v12.5l-0.5,0l-0.6,0
			l-9.7-12.4v8.6c0,0.9,0,1.5,0.1,1.9c0.1,0.4,0.3,0.7,0.6,0.9c0.3,0.2,0.8,0.3,1.5,0.4v0.4c-0.6,0-1.4-0.1-2.4-0.1
			c-0.8,0-1.5,0-2,0.1v-0.4c0.5-0.1,0.9-0.2,1.1-0.4c0.2-0.2,0.4-0.5,0.5-0.9c0.1-0.4,0.1-1,0.1-1.7V46.6c0-0.6,0-1-0.1-1.2
			c-0.1-0.3-0.2-0.4-0.5-0.5c-0.2-0.1-0.6-0.1-1.1-0.2v-0.4c0.5,0,1.1,0.1,2,0.1c0.7,0,1.4,0,1.9-0.1l8.7,10.7v-7
			c0-0.9,0-1.5-0.1-1.9c-0.1-0.4-0.3-0.7-0.6-0.9c-0.3-0.2-0.8-0.3-1.5-0.4v-0.4c0.6,0,1.4,0.1,2.4,0.1c0.8,0,1.5,0,2-0.1V44.7z"/>
		<path class="st1" d="M205.2,59.3c0.3,0.2,0.5,0.3,0.7,0.4v0.4c-0.9,0-2-0.1-3.4-0.1c-1.5,0-2.7,0-3.4,0.1v-0.4
			c0.6,0,1-0.1,1.2-0.2c0.2-0.1,0.4-0.3,0.4-0.6c0-0.3-0.1-0.6-0.3-1.1l-1.3-3.7h-4.9l-0.6,1.6c-0.4,1.1-0.6,1.9-0.6,2.5
			c0,0.6,0.2,0.9,0.5,1.2c0.3,0.2,0.8,0.3,1.5,0.4v0.4c-1,0-1.9-0.1-2.8-0.1c-0.7,0-1.3,0-1.7,0.1v-0.4c0.7-0.1,1.4-0.9,1.9-2.4
			l5.1-13.1c0.2,0,0.4,0,0.8,0c0.4,0,0.6,0,0.8,0l5.5,14.1C204.8,58.7,205,59.1,205.2,59.3z M198.9,53.7l-2.2-6.1l-2.3,6.1H198.9z"
			/>
		<path class="st1" d="M214.6,44.7c-0.5,0-0.9,0.1-1.2,0.2c-0.2,0.1-0.4,0.3-0.5,0.5c-0.1,0.3-0.1,0.7-0.1,1.2V58c0,0.5,0,0.8,0.1,1
			c0.1,0.2,0.2,0.4,0.4,0.4c0.2,0.1,0.5,0.1,0.9,0.1h1.1c1,0,1.9-0.5,2.6-1.4c0.7-0.9,1.2-2.1,1.4-3.6h0.5c0,0.5-0.1,1.2-0.1,2
			c0,1.4,0.1,2.6,0.2,3.5c-1,0-2.7-0.1-5.1-0.1c-3.3,0-5.7,0-7.3,0.1v-0.4c0.5,0,0.9-0.1,1.1-0.2c0.2-0.1,0.4-0.3,0.5-0.5
			c0.1-0.3,0.1-0.7,0.1-1.2V46.6c0-0.6,0-1-0.1-1.2c-0.1-0.3-0.2-0.4-0.5-0.5c-0.2-0.1-0.6-0.1-1.1-0.2v-0.4c0.8,0,1.9,0.1,3.5,0.1
			c1.5,0,2.7,0,3.5-0.1V44.7z"/>
	</g>
	<g>
		<path class="st2" d="M94.8,74.1h-4.1L90,75.7h-1.3l3.4-7.7h1.3l3.4,7.7h-1.3L94.8,74.1z M92.8,69.3L91.1,73h3.2L92.8,69.3z"/>
		<path class="st2" d="M105.3,69.8c-0.5-0.5-1.4-0.8-2.1-0.8c-1.8,0-2.8,1.3-2.8,3c0,1.4,0.8,2.8,2.8,2.8c0.7,0,1.3-0.2,1.9-0.7
			v-1.6H103v-1.1h3.3v3.1c-0.8,0.8-1.7,1.3-3,1.3c-2.8,0-4-1.9-4-3.9c0-2.2,1.4-4.1,4-4.1c1,0,2,0.4,2.8,1.2L105.3,69.8z"/>
		<path class="st2" d="M116.4,68v4.5c0,2.3-1.5,3.4-3.3,3.3c-1.7,0-3.2-1.1-3.2-3.3V68h1.2v4.5c0,1.4,0.8,2.1,1.9,2.2
			c1.2,0.1,2.1-0.7,2.1-2.2V68H116.4z"/>
		<path class="st2" d="M125.2,74.1h-4.1l-0.7,1.6H119l3.4-7.7h1.3l3.4,7.7H126L125.2,74.1z M123.1,69.3l-1.6,3.6h3.2L123.1,69.3z"/>
		<path class="st2" d="M135,69.7c-0.4-0.5-1.1-0.8-1.9-0.9c-1,0-1.8,0.4-1.8,1.2c0,0.7,0.9,1,1.9,1.1c1.6,0.2,3.1,0.7,3.1,2.4
			c0,1.7-1.6,2.4-3.2,2.4c-1.5,0-2.6-0.4-3.3-1.7l0.9-0.6c0.5,0.9,1.5,1.3,2.4,1.3c0.9,0,1.9-0.3,1.9-1.3c0-0.8-0.9-1.1-2-1.3
			c-1.5-0.2-3-0.6-3-2.2c0-1.6,1.6-2.2,3-2.2c1.1,0,2.2,0.3,2.9,1.3L135,69.7z"/>
		<path class="st2" d="M146.2,74.7c-0.8,0.8-1.8,1.1-2.9,1.1c-2.8,0-4-1.9-4-3.9c0-2,1.3-4,4-4c1,0,2,0.4,2.8,1.2l-0.8,0.8
			c-0.5-0.5-1.3-0.8-2-0.8c-1.9,0-2.8,1.4-2.8,2.8c0,1.4,0.8,2.8,2.8,2.8c0.7,0,1.5-0.3,2-0.8L146.2,74.7z"/>
		<path class="st2" d="M155.1,74.1h-4.1l-0.7,1.6h-1.3l3.4-7.7h1.3l3.4,7.7h-1.3L155.1,74.1z M153,69.3l-1.6,3.6h3.2L153,69.3z"/>
		<path class="st2" d="M161.5,68v6.5h4v1.1h-5.3V68H161.5z"/>
		<path class="st2" d="M168.7,75.7V68h1.2v7.7H168.7z"/>
		<path class="st2" d="M179.6,75.7H174c0-2.6,0-5.1,0-7.7h5.6v1.2h-4.4v2.1h4.2v1.1h-4.2v2.1h4.4V75.7z"/>
		<path class="st2" d="M188.6,73.5V68h1.2v7.7h-0.9l-4.3-5.4v5.4h-1.2V68h0.9L188.6,73.5z"/>
		<path class="st2" d="M195.6,69.1h-2.5V68c2.2,0,4.1,0,6.3,0v1.1h-2.5v6.6h-1.2V69.1z"/>
		<path class="st2" d="M208.2,75.7h-5.7c0-2.6,0-5.1,0-7.7h5.6v1.2h-4.4v2.1h4.2v1.1h-4.2v2.1h4.4V75.7z"/>
		<path class="st2" d="M216.4,69.7c-0.4-0.5-1.1-0.8-1.9-0.9c-1,0-1.8,0.4-1.8,1.2c0,0.7,0.9,1,1.9,1.1c1.6,0.2,3.1,0.7,3.1,2.4
			c0,1.7-1.6,2.4-3.2,2.4c-1.5,0-2.6-0.4-3.3-1.7l0.9-0.6c0.5,0.9,1.5,1.3,2.4,1.3c0.9,0,1.9-0.3,1.9-1.3c0-0.8-0.9-1.1-2-1.3
			c-1.5-0.2-3-0.6-3-2.2c0-1.6,1.6-2.2,3-2.2c1.1,0,2.2,0.3,2.9,1.3L216.4,69.7z"/>
	</g>
	<g>
		<path class="st2" d="M237.2,17.1c1.4,1.9,1.9,3.3,1.7,3.4s-1-1.1-2.4-3c-1.4-1.9-2.3-3.5-2.2-3.6
			C234.6,13.8,235.8,15.2,237.2,17.1z"/>
		<ellipse transform="matrix(0.92 -0.392 0.392 0.92 9.153 96.4477)" class="st2" cx="240.8" cy="25.8" rx="0.9" ry="4.7"/>
		<ellipse transform="matrix(0.9669 -0.255 0.255 0.9669 -1.1831 63.2257)" class="st2" cx="243.3" cy="36.2" rx="1.4" ry="4.9"/>
		
			<ellipse transform="matrix(0.9988 -4.854361e-02 4.854361e-02 0.9988 -2.0254 11.927)" class="st2" cx="244.5" cy="47.7" rx="1.7" ry="5"/>
		<ellipse transform="matrix(0.1864 -0.9825 0.9825 0.1864 138.9263 289.0753)" class="st2" cx="244" cy="60.7" rx="5" ry="1.8"/>
		
			<ellipse transform="matrix(0.3554 -0.9347 0.9347 0.3554 89.1747 272.3925)" class="st2" cx="242.1" cy="71.5" rx="4.8" ry="1.4"/>
		<path class="st2" d="M240.1,33.4c1,2.9,0.6,5.6-1,6.2c-1.6,0.5-3.9-1.2-4.9-4c-1-2.9-0.3-5.8,1.2-6.3S239.1,30.5,240.1,33.4z"/>
		<path class="st2" d="M231.9,31.5c1.1,3.1,0.2,6.2-2,6.9c-2.2,0.8-5.3-0.6-6.7-4c-1.2-3-0.2-6.5,2.5-7.1
			C228,26.7,230.9,28.4,231.9,31.5z"/>
		<path class="st2" d="M229.1,18.3c1.7,2.6,1.7,5.6,0.1,6.6s-4.6,0.3-6.6-2.6c-1.8-2.5-1.9-5.9,0.3-6.9
			C224.6,14.6,227.4,15.7,229.1,18.3z"/>
		<path class="st2" d="M225,7.9c2.6,2.3,3,4.4,2,5.4s-3.5,0.7-5.9-1.5c-2.1-1.9-3.1-4.6-1.8-5.6C220.5,5.3,222.9,6,225,7.9z"/>
		<path class="st2" d="M220.4,30.2c1.1,3.2,0,6.6-2.6,7.5c-3.1,1-6.8-0.7-7.9-3.9c-1.1-3.2,0.1-7.1,3.5-7.8
			C216,25.3,219.2,26.9,220.4,30.2z"/>
		<path class="st2" d="M218.4,16.4c1.6,2.6,1.4,5-0.8,6.7c-2.1,1.6-6.5,0.2-8-2.6c-1.6-2.8-1.7-5.8,1-7.1
			C212.6,12.6,216.5,13.3,218.4,16.4z"/>
		<path class="st2" d="M214.8,4.9c2.3,2,3.5,3.8,2.6,5.6c-0.8,1.7-4.9,1.5-7.5-0.5c-2.5-1.9-3.8-4.4-2.3-6.2
			C208.7,2.5,212,2.4,214.8,4.9z"/>
		<path class="st2" d="M203.3,12.9c2.1,1.4,4.1,4.2,2.2,7.4c-1.4,2.4-5.7,3.2-8.4,1.6c-2.7-1.7-4.2-4.7-2.5-7.5
			C196.2,11.8,200.7,11.1,203.3,12.9z"/>
		<path class="st2" d="M187,12.1c2.7,1.3,4,4.4,2.1,7.7c-1.4,2.5-6.4,3.4-9.1,1.7c-2.7-1.7-3.3-4.7-1.6-7.5
			C180.1,11.4,184.1,10.7,187,12.1z"/>
		<path class="st2" d="M184,0.8c3-0.1,5.8,1.8,5.8,4.5c0,2.1-2.8,4.3-6.7,4.1c-3.1-0.1-5.2-1.8-5-4.2C178.2,2.6,180.9,0.9,184,0.8z"
			/>
		<path class="st2" d="M168.9,2.2c2.7-1.1,5.7-0.8,6.6,1.5c0.6,1.7-0.3,4.8-3.9,6c-2.9,1-6.1,0.1-6.8-1.9
			C164.1,5.7,166,3.3,168.9,2.2z"/>
		<path class="st2" d="M201.9,2.3c2.2,1.3,4,2.8,2.4,5.8c-0.9,1.8-5.2,2.8-8.6,0.3c-1.8-1.3-3.4-3.4-1.2-5.7
			C196,1.1,199.4,0.8,201.9,2.3z"/>
		<path class="st2" d="M206.7,29.4c1.2,3.3-0.3,6.8-3.2,7.8c-3.5,1.2-7.6-0.5-8.8-3.7c-1.2-3.3,0.4-7.4,4.2-8.2
			C202,24.5,205.5,26.1,206.7,29.4z"/>
		<path class="st2" d="M241.5,47.2c0.2,3.4-0.9,5.5-3.1,5.5c-1.8,0-3.6-2.3-3.6-5.4s1.1-5.6,3.4-5.6C240,41.8,241.3,44.2,241.5,47.2
			z"/>
		<path class="st2" d="M240.9,62.5c-0.7,3.3-2.3,5.1-4.5,4.5c-1.7-0.5-2.8-3.2-2-6.1c0.8-2.9,2.5-5.1,4.8-4.5
			C240.9,56.9,241.6,59.6,240.9,62.5z"/>
		<path class="st2" d="M237.1,21.6c1.6,2.9,1.2,5.3,0.3,5.8s-3.3-0.9-4.6-3.4c-1.3-2.5-1.4-5.3-0.3-5.9
			C233.5,17.7,235.7,19.2,237.1,21.6z"/>
		<path class="st2" d="M232.6,12.3c2.3,2.6,2.5,4.2,2,4.7c-0.5,0.4-2.6-0.9-4.3-3c-1.6-2.1-2.4-4.2-1.7-4.7
			C229.2,8.8,230.9,10.3,232.6,12.3z"/>
		<ellipse class="st2" cx="228.3" cy="47" rx="4.8" ry="6"/>
	</g>
</g>
</svg>
