<svg id="Capa_1" data-name="Capa 1" xmlns="http://www.w3.org/2000/svg" viewBox="0 0 514 198.43"><defs><style>.cls-1{fill:#191730;}.cls-2,.cls-3{fill:#ac8700;}.cls-3{fill-rule:evenodd;}</style></defs><path class="cls-1" d="M68,108.25a4.07,4.07,0,0,0-1.8.63,2.27,2.27,0,0,0-.78,1.42,14.41,14.41,0,0,0-.21,2.86V123c0,3.55-.5,6.17-1.52,7.88a6.71,6.71,0,0,1-2.9,2.55,10.6,10.6,0,0,1-4.64.91,10.61,10.61,0,0,1-6.69-1.86A6.69,6.69,0,0,1,47.13,129a23,23,0,0,1-.59-5.89V111.45a7.15,7.15,0,0,0-.21-2,1.26,1.26,0,0,0-.78-.85,6.33,6.33,0,0,0-1.8-.3v-.74c1.26.07,3.2.11,5.8.11s4.54,0,5.91-.11v.74a7.36,7.36,0,0,0-2,.3,1.34,1.34,0,0,0-.84.85,6.74,6.74,0,0,0-.22,2v14a11.22,11.22,0,0,0,1.13,5.74c.76,1.23,2.09,1.84,4,1.84q3.7,0,5.24-2.51a13.83,13.83,0,0,0,1.52-7.12V113.6a14.49,14.49,0,0,0-.26-3.19,2.35,2.35,0,0,0-1-1.51,6,6,0,0,0-2.35-.65v-.74c1,.07,2.28.11,4,.11,1.39,0,2.46,0,3.23-.11Z"/><path class="cls-1" d="M75.66,129.38a3,3,0,0,1,0,4.2,3.88,3.88,0,0,1-4.61,0,3,3,0,0,1,0-4.2,3.88,3.88,0,0,1,4.61,0Z"/><path class="cls-1" d="M101.63,108.25a6.3,6.3,0,0,0-1.82.3,1.3,1.3,0,0,0-.76.85,7.15,7.15,0,0,0-.21,2v18.43a7.07,7.07,0,0,0,.21,2,1.29,1.29,0,0,0,.76.86,6.3,6.3,0,0,0,1.82.3v.74c-1.34-.07-3.21-.11-5.61-.11-2.65,0-4.61,0-5.87.11v-.74a6.33,6.33,0,0,0,1.8-.3,1.3,1.3,0,0,0,.78-.86,7.07,7.07,0,0,0,.21-2V111.45a7.15,7.15,0,0,0-.21-2,1.3,1.3,0,0,0-.78-.85,6.33,6.33,0,0,0-1.8-.3v-.74c1.26.07,3.22.11,5.87.11,2.4,0,4.27,0,5.61-.11Z"/><path class="cls-1" d="M129.44,108.25a4.07,4.07,0,0,0-1.8.63,2.27,2.27,0,0,0-.78,1.42,14.41,14.41,0,0,0-.21,2.86v20.73l-.89,0-1,0-16.13-20.44v14.27a16.55,16.55,0,0,0,.22,3.22,2.22,2.22,0,0,0,1,1.49,6.09,6.09,0,0,0,2.41.65v.74c-1-.07-2.3-.11-4-.11-1.36,0-2.44,0-3.23.11v-.74a4,4,0,0,0,1.8-.64,2.31,2.31,0,0,0,.78-1.41,14.64,14.64,0,0,0,.2-2.86V111.45a7.24,7.24,0,0,0-.2-2,1.3,1.3,0,0,0-.78-.85,6.4,6.4,0,0,0-1.8-.3v-.74c.79.07,1.87.11,3.23.11s2.3,0,3.2-.11l14.38,17.72V113.6a17.34,17.34,0,0,0-.22-3.21,2.25,2.25,0,0,0-1-1.49,6.15,6.15,0,0,0-2.42-.65v-.74c1,.07,2.31.11,4,.11,1.38,0,2.46,0,3.23-.11Z"/><path class="cls-1" d="M155.2,113.83c0,1.16,0,2.1.11,2.82h-.85q-.9-4.58-2.44-6.43a5.16,5.16,0,0,0-4.21-1.86H147v21.22a6,6,0,0,0,.32,2.27,1.69,1.69,0,0,0,1.11,1,10.76,10.76,0,0,0,2.55.28v.74c-3.12-.07-5.48-.11-7.06-.11s-3.83,0-6.8.11v-.74a10.66,10.66,0,0,0,2.54-.28,1.7,1.7,0,0,0,1.12-1,6,6,0,0,0,.31-2.27V108.36h-.81a5.6,5.6,0,0,0-3,.78,6.1,6.1,0,0,0-2.14,2.59,20.74,20.74,0,0,0-1.52,4.92h-.86a27,27,0,0,0,.11-2.82c0-1.86-.08-4-.26-6.32,2.26.07,6.08.11,11.49.11s9.21,0,11.44-.11Q155.2,111,155.2,113.83Z"/><path class="cls-1" d="M179.28,133.82q-2.52-.1-8.51-.11-8.1,0-12.11.11v-.74a6.33,6.33,0,0,0,1.8-.3,1.3,1.3,0,0,0,.78-.86,7.07,7.07,0,0,0,.21-2V111.45a7.15,7.15,0,0,0-.21-2,1.3,1.3,0,0,0-.78-.85,6.33,6.33,0,0,0-1.8-.3v-.74q4,.1,12.11.11c3.65,0,6.23,0,7.77-.11-.17,2-.26,3.89-.26,5.5a23,23,0,0,0,.11,2.53h-.85c-.37-2.66-1-4.51-2-5.58a5.27,5.27,0,0,0-4.09-1.6h-1.52a5.15,5.15,0,0,0-1.67.19,1.09,1.09,0,0,0-.71.72,5.91,5.91,0,0,0-.19,1.73v9.22h1.19a3.46,3.46,0,0,0,3-1.45,9.23,9.23,0,0,0,1.43-3.46h.85c-.07,1-.11,2.21-.11,3.5v1.78c0,1.26.07,3,.22,5.28h-.85q-.78-4.91-4.54-4.91h-1.19v9.37a5.79,5.79,0,0,0,.19,1.72,1.1,1.1,0,0,0,.71.73,5.52,5.52,0,0,0,1.67.18h1.82a5.42,5.42,0,0,0,4.25-1.8q1.62-1.8,2.29-6.11h.85c-.07.82-.11,1.86-.11,3.12A51.21,51.21,0,0,0,179.28,133.82Z"/><path class="cls-1" d="M208,132.18a6.22,6.22,0,0,1-2.16,1.66,7.06,7.06,0,0,1-2.79.5,5.64,5.64,0,0,1-3.4-.91,4.57,4.57,0,0,1-1.61-3.1l-.67-3.72a14.86,14.86,0,0,0-1.17-4,2.4,2.4,0,0,0-2.29-1.28h-2.42v8.55a7.07,7.07,0,0,0,.21,2,1.29,1.29,0,0,0,.76.86,6.3,6.3,0,0,0,1.82.3v.74c-1.34-.07-3.21-.11-5.61-.11-2.65,0-4.61,0-5.87.11v-.74a6.33,6.33,0,0,0,1.8-.3,1.3,1.3,0,0,0,.78-.86,7.07,7.07,0,0,0,.21-2V111.45a7.15,7.15,0,0,0-.21-2,1.3,1.3,0,0,0-.78-.85,6.33,6.33,0,0,0-1.8-.3v-.74c1.26.07,3.14.11,5.65.11l4.12,0q.75,0,1.71,0c3.42,0,6,.55,7.71,1.67a5.38,5.38,0,0,1,2.59,4.79,6.51,6.51,0,0,1-1.94,4.65c-1.28,1.33-3.42,2.18-6.39,2.52a10.45,10.45,0,0,1,5,1.45,5.37,5.37,0,0,1,2.12,3.46l.85,3.83a6.42,6.42,0,0,0,.69,2.08,1.26,1.26,0,0,0,1.1.59,1.74,1.74,0,0,0,.76-.22,3.38,3.38,0,0,0,.73-.63Zm-15.67-23.67a1.41,1.41,0,0,0-.65.93,8.27,8.27,0,0,0-.19,2v9.14h1.6c2,0,3.43-.54,4.18-1.62a7.78,7.78,0,0,0,1.14-4.55,8.11,8.11,0,0,0-1.08-4.61,4,4,0,0,0-3.53-1.56A3.19,3.19,0,0,0,192.36,108.51Z"/><path class="cls-1" d="M234.83,108.25a4.16,4.16,0,0,0-1.8.63,2.36,2.36,0,0,0-.78,1.42,15.4,15.4,0,0,0-.2,2.86v20.73l-.89,0-1,0L214,113.45v14.27a16.36,16.36,0,0,0,.23,3.22,2.24,2.24,0,0,0,1,1.49,6.15,6.15,0,0,0,2.42.65v.74c-1-.07-2.31-.11-4-.11-1.36,0-2.44,0-3.23.11v-.74a3.94,3.94,0,0,0,1.8-.64A2.21,2.21,0,0,0,213,131a14.48,14.48,0,0,0,.21-2.86V111.45a7.15,7.15,0,0,0-.21-2,1.26,1.26,0,0,0-.78-.85,6.33,6.33,0,0,0-1.8-.3v-.74c.79.07,1.87.11,3.23.11s2.31,0,3.2-.11l14.38,17.72V113.6a16.5,16.5,0,0,0-.22-3.21,2.22,2.22,0,0,0-1-1.49,6.09,6.09,0,0,0-2.41-.65v-.74c1,.07,2.3.11,4,.11,1.39,0,2.47,0,3.23-.11Z"/><path class="cls-1" d="M260.13,132.48a2.15,2.15,0,0,0,1.22.6v.74c-1.48-.07-3.37-.11-5.65-.11-2.52,0-4.41,0-5.64.11v-.74a5.69,5.69,0,0,0,2-.36,1,1,0,0,0,.6-1,5.14,5.14,0,0,0-.45-1.79L250,123.86h-8.1l-1,2.56a12.62,12.62,0,0,0-1,4.13,2.09,2.09,0,0,0,.84,1.91,5,5,0,0,0,2.47.62v.74c-1.68-.07-3.22-.11-4.61-.11-1.14,0-2.08,0-2.82.11v-.74c1.21-.23,2.28-1.53,3.19-3.91l8.48-21.74c.27,0,.7,0,1.3,0a12.47,12.47,0,0,0,1.26,0l9,23.27A4.55,4.55,0,0,0,260.13,132.48Zm-10.41-9.36-3.68-10-3.86,10Z"/><path class="cls-1" d="M278.65,107.62a13,13,0,0,1,3,1.78,1.2,1.2,0,0,0,.71.34c.49,0,.82-.75,1-2.23h.86q-.15,2.52-.15,9h-.85a18.5,18.5,0,0,0-.9-4.2,6,6,0,0,0-1.89-2.53,6.36,6.36,0,0,0-2.16-1.35,7.13,7.13,0,0,0-2.56-.47,5.92,5.92,0,0,0-5.58,3.66,20.48,20.48,0,0,0-1.82,9.13,19.55,19.55,0,0,0,1.9,9.07,6.07,6.07,0,0,0,5.65,3.64,7.15,7.15,0,0,0,2.51-.47,5.59,5.59,0,0,0,2.1-1.35,5.5,5.5,0,0,0,1.91-2.6,21.45,21.45,0,0,0,.84-4.58h.85q0,6.74.15,9.37h-.86a6.27,6.27,0,0,0-.31-1.69c-.14-.34-.33-.5-.58-.5a1.68,1.68,0,0,0-.78.29,15.47,15.47,0,0,1-3.19,1.81,9.88,9.88,0,0,1-3.68.61,14.24,14.24,0,0,1-6.9-1.6,11.14,11.14,0,0,1-4.59-4.63,15,15,0,0,1-1.63-7.22,15.32,15.32,0,0,1,1.67-7.25,12.15,12.15,0,0,1,4.67-4.91,13.27,13.27,0,0,1,6.81-1.74A10.17,10.17,0,0,1,278.65,107.62Z"/><path class="cls-1" d="M299.44,108.25a6.3,6.3,0,0,0-1.82.3,1.3,1.3,0,0,0-.76.85,7.15,7.15,0,0,0-.21,2v18.43a7.07,7.07,0,0,0,.21,2,1.29,1.29,0,0,0,.76.86,6.3,6.3,0,0,0,1.82.3v.74c-1.34-.07-3.21-.11-5.61-.11-2.65,0-4.61,0-5.87.11v-.74a6.33,6.33,0,0,0,1.8-.3,1.27,1.27,0,0,0,.78-.86,7.07,7.07,0,0,0,.21-2V111.45a7.15,7.15,0,0,0-.21-2,1.28,1.28,0,0,0-.78-.85,6.33,6.33,0,0,0-1.8-.3v-.74c1.26.07,3.22.11,5.87.11,2.4,0,4.27,0,5.61-.11Z"/><path class="cls-1" d="M322.14,108.59a11.11,11.11,0,0,1,4.59,4.62,15,15,0,0,1,1.63,7.23,15.21,15.21,0,0,1-1.67,7.25,12.1,12.1,0,0,1-4.66,4.9,13.24,13.24,0,0,1-6.82,1.75,14.24,14.24,0,0,1-6.9-1.6,11.14,11.14,0,0,1-4.59-4.63,15,15,0,0,1-1.63-7.22,15.32,15.32,0,0,1,1.67-7.25,12.19,12.19,0,0,1,4.66-4.91,13.33,13.33,0,0,1,6.82-1.74A14.24,14.24,0,0,1,322.14,108.59Zm-10.65.72a11,11,0,0,0-2.4,4.63,25.48,25.48,0,0,0-.83,6.8,22.22,22.22,0,0,0,.94,6.8,11,11,0,0,0,2.57,4.53,5,5,0,0,0,3.59,1.6A4.82,4.82,0,0,0,319,132a11.06,11.06,0,0,0,2.4-4.63,25.48,25.48,0,0,0,.83-6.8,22.22,22.22,0,0,0-.94-6.8,11.13,11.13,0,0,0-2.57-4.54,5,5,0,0,0-3.59-1.59A4.82,4.82,0,0,0,311.49,109.31Z"/><path class="cls-1" d="M355.5,108.25a4.07,4.07,0,0,0-1.8.63,2.27,2.27,0,0,0-.78,1.42,14.41,14.41,0,0,0-.21,2.86v20.73l-.89,0-1,0-16.13-20.44v14.27a16.55,16.55,0,0,0,.22,3.22,2.22,2.22,0,0,0,1,1.49,6.09,6.09,0,0,0,2.41.65v.74c-1-.07-2.3-.11-4-.11-1.36,0-2.44,0-3.23.11v-.74a4,4,0,0,0,1.8-.64,2.31,2.31,0,0,0,.78-1.41,15.47,15.47,0,0,0,.2-2.86V111.45a7.63,7.63,0,0,0-.2-2,1.3,1.3,0,0,0-.78-.85,6.48,6.48,0,0,0-1.8-.3v-.74c.79.07,1.87.11,3.23.11s2.3,0,3.19-.11l14.39,17.72V113.6a16.31,16.31,0,0,0-.23-3.21,2.2,2.2,0,0,0-1-1.49,6.15,6.15,0,0,0-2.42-.65v-.74c1,.07,2.31.11,4,.11,1.38,0,2.46,0,3.23-.11Z"/><path class="cls-1" d="M380.79,132.48a2.14,2.14,0,0,0,1.23.6v.74c-1.49-.07-3.37-.11-5.65-.11-2.53,0-4.41,0-5.65.11v-.74a5.81,5.81,0,0,0,2-.36,1,1,0,0,0,.59-1,5.32,5.32,0,0,0-.44-1.79l-2.23-6.09h-8.11l-1,2.56a12.36,12.36,0,0,0-1,4.13,2.1,2.1,0,0,0,.83,1.91,5,5,0,0,0,2.47.62v.74c-1.68-.07-3.22-.11-4.6-.11-1.14,0-2.08,0-2.83.11v-.74c1.22-.23,2.28-1.53,3.2-3.91l8.47-21.74c.27,0,.71,0,1.3,0a12.58,12.58,0,0,0,1.27,0l9,23.27A4.54,4.54,0,0,0,380.79,132.48Zm-10.4-9.36-3.68-10-3.87,10Z"/><path class="cls-1" d="M396.35,108.25a7.36,7.36,0,0,0-2,.3,1.34,1.34,0,0,0-.84.85,6.74,6.74,0,0,0-.22,2v18.88a5.86,5.86,0,0,0,.18,1.72,1.14,1.14,0,0,0,.65.73,4.58,4.58,0,0,0,1.51.18h1.82a5.49,5.49,0,0,0,4.37-2.26,12.26,12.26,0,0,0,2.39-6h.86c-.08.84-.11,1.93-.11,3.27a52.48,52.48,0,0,0,.26,5.87c-1.69-.07-4.52-.11-8.51-.11q-8.1,0-12.12.11v-.74a6.33,6.33,0,0,0,1.8-.3,1.25,1.25,0,0,0,.78-.86,7.07,7.07,0,0,0,.21-2V111.45a7.15,7.15,0,0,0-.21-2,1.26,1.26,0,0,0-.78-.85,6.33,6.33,0,0,0-1.8-.3v-.74c1.26.07,3.22.11,5.87.11s4.48,0,5.84-.11Z"/><path class="cls-2" d="M183.34,147.31a6.23,6.23,0,1,1,0,12.45h-4.71V147.31Zm-2.74,10.53h2.74a4.31,4.31,0,0,0,0-8.62H180.6Z"/><path class="cls-2" d="M202.94,159.76h-9.2V147.31h9.14v1.94h-7.15v3.36h6.87v1.85h-6.87v3.35h7.21Z"/><path class="cls-2" d="M221.56,157.15h-6.74l-1.18,2.61h-2.11l5.58-12.45h2.17l5.59,12.45h-2.12Zm-3.36-7.74-2.64,5.93h5.27Z"/><path class="cls-2" d="M237,150.18a5,5,0,0,0-3.36-1.34,4.48,4.48,0,0,0-4.59,4.82,4.24,4.24,0,0,0,4.59,4.49,4.42,4.42,0,0,0,3-1.11v-2.52h-3.47v-1.78h5.32v5.1a6.25,6.25,0,0,1-4.89,2.17c-4.57,0-6.55-3-6.55-6.35,0-3.59,2.3-6.65,6.55-6.65a6.53,6.53,0,0,1,4.61,1.89Z"/><path class="cls-2" d="M253.29,147.33v7.28c0,3.66-2.42,5.49-5.43,5.39a5,5,0,0,1-5.14-5.39v-7.28h2v7.28c0,2.26,1.31,3.48,3.16,3.55s3.45-1.19,3.45-3.55v-7.28Z"/><path class="cls-2" d="M266.2,157.15h-6.74l-1.18,2.61h-2.11l5.58-12.45h2.17l5.59,12.45h-2.12Zm-3.36-7.74-2.64,5.93h5.27Z"/><path class="cls-2" d="M280.23,150.07a3.81,3.81,0,0,0-3.08-1.39c-1.67,0-2.88.7-2.88,1.89s1.39,1.55,3,1.78c2.57.35,5,1.06,5,3.86s-2.56,3.84-5.16,3.84c-2.38,0-4.21-.73-5.35-2.83l1.5-1a4.28,4.28,0,0,0,3.87,2.05c1.5,0,3.15-.5,3.15-2.06,0-1.35-1.44-1.82-3.18-2.05-2.48-.34-4.82-1-4.82-3.63s2.56-3.57,4.8-3.57c1.8,0,3.59.42,4.64,2.1Z"/><path class="cls-2" d="M296.79,158.16a6.51,6.51,0,0,1-4.68,1.85c-4.52,0-6.55-3.11-6.56-6.38a6.23,6.23,0,0,1,6.56-6.53,6.33,6.33,0,0,1,4.55,1.89l-1.33,1.28a4.53,4.53,0,0,0-3.22-1.28,4.36,4.36,0,0,0-4.59,4.62,4.3,4.3,0,0,0,4.59,4.54,4.79,4.79,0,0,0,3.31-1.36Z"/><path class="cls-2" d="M309.22,157.15h-6.74l-1.18,2.61h-2.11l5.58-12.45h2.17l5.59,12.45h-2.12Zm-3.36-7.74-2.64,5.93h5.27Z"/><path class="cls-2" d="M318,147.31v10.6h6.56v1.85H316V147.31Z"/><path class="cls-2" d="M328.25,159.76V147.31h2v12.45Z"/><path class="cls-2" d="M344.32,159.76h-9.19V147.31h9.14v1.94h-7.15v3.36H344v1.85h-6.87v3.35h7.2Z"/><path class="cls-2" d="M357.25,156.17v-8.86h2v12.45h-1.52L350.67,151v8.78h-2V147.31h1.53Z"/><path class="cls-2" d="M367,149.11h-4.09v-1.8h10.17v1.8H369v10.65h-2Z"/><path class="cls-2" d="M385.9,159.76h-9.19V147.31h9.14v1.94H378.7v3.36h6.87v1.85H378.7v3.35h7.2Z"/><path class="cls-2" d="M397.68,150.07a3.81,3.81,0,0,0-3.08-1.39c-1.67,0-2.88.7-2.88,1.89s1.39,1.55,3,1.78c2.56.35,5,1.06,5,3.86s-2.56,3.84-5.16,3.84c-2.38,0-4.21-.73-5.35-2.83l1.49-1a4.3,4.3,0,0,0,3.88,2.05c1.49,0,3.15-.5,3.15-2.06,0-1.35-1.44-1.82-3.19-2.05-2.47-.34-4.82-1-4.82-3.63s2.57-3.57,4.81-3.57c1.79,0,3.59.42,4.64,2.1Z"/><path class="cls-3" d="M367.55,45.68c-2.44,1.46-3.78,3.2-2.91,4,.91,1,3.88.46,6.52-1.19s3.73-3.48,2.58-4.23C372.71,43.62,370,44.31,367.55,45.68Z"/><path class="cls-3" d="M386.41,40.63c2.52-1,3.36-2.14,1.95-2.55a17.33,17.33,0,0,0-6.52,1c-2.44.89-3.57,1.93-2.36,2.36C380.72,42,383.89,41.72,386.41,40.63Z"/><path class="cls-3" d="M410.18,38.92a13.73,13.73,0,0,0,7.42,1.22c1.93-.24,1.76-1.08-.25-1.89a25.82,25.82,0,0,0-6.87-1.16C408.46,37.23,408.31,38.05,410.18,38.92Z"/><path class="cls-3" d="M428.35,45.23c2.19,1.66,5.37,2.68,7,2.33,1.45-.25.84-1.56-1.25-3a15.81,15.81,0,0,0-6.51-2.36C425.92,42.38,426.2,43.72,428.35,45.23Z"/><path class="cls-3" d="M451.28,57.75c.83-.24-.1-1.83-2-3.66S445,50.91,444,50.89c-1.15.11-.45,1.85,1.64,3.82S450.31,58.15,451.28,57.75Z"/><path class="cls-3" d="M459.32,73.4c1-1,.35-3.7-1.39-6s-4.22-3.68-5.46-3c-1.37.88-.91,3.75,1.07,6.29S458.11,74.49,459.32,73.4Z"/><path class="cls-3" d="M465.28,92.91c1.23-1.54,1-4.91-.51-7.58s-3.91-3.72-5.32-2.32-1.46,5.08.29,7.9S463.91,94.56,465.28,92.91Z"/><path class="cls-3" d="M468.5,113.73a9.51,9.51,0,0,0,.52-8c-1.14-2.61-3.29-3.35-4.83-1.43s-2,5.83-.63,8.5S467,115.78,468.5,113.73Z"/><path class="cls-3" d="M458.64,136.91a2.78,2.78,0,0,1-1.74-2.62c-.07-2.31-.24-2.29-.45-4.6-.11-1.29-.11-2.09.79-2.76h0a5.69,5.69,0,0,0,.72-.61,8.23,8.23,0,0,0,1.34-8.82,4.57,4.57,0,0,0-2.32-2.13,3.3,3.3,0,0,1-2-2.87c-.36-2.53-.36-2.53-.76-5.07a4.15,4.15,0,0,1,1-3.66c2-2.08,2.2-6,.44-8.81A6.16,6.16,0,0,0,453,92.55a4.37,4.37,0,0,1-2.35-3C450,87,450,87,449.39,84.56a3.11,3.11,0,0,1,.7-3.29c1.89-1.62,1.74-5-.27-7.73s-5.38-3.74-7.42-2.28c-1.84,1.25-2.14,4-.92,6.5l-.05,0c.18.78.42,1.69-.33,2.31-1.34,1.07-3,3-4.67,2.72h0A7.4,7.4,0,0,0,433,80.71a5.31,5.31,0,0,1-2.75-3.22c-.67-2.46-.67-2.46-1.37-4.94a1.86,1.86,0,0,1,.51-2.26,4.71,4.71,0,0,0,1.07-.55,4.33,4.33,0,0,0,1.26-6.11c-.42-.78.5-1.6,1.06-2l2.13-1.71c.45-.38.87-.17,1.4.09,2.24,2.11,5.19,2.8,6.93,1.76s1.33-3.52-.83-5.74-5.36-3.28-7.17-2.51c-1.46.67-1.75,2.31-.85,4.09.16.68.15.86-.52,1.42l-2.16,1.72c-.66.5-1.43,1-2.29.42-2.29-1.6-5.26-2-7.35-.79-2.61,1.54-2.9,4.95-.55,7.6a7.93,7.93,0,0,0,4.11,2.48h-.06c1.22.33,1.54,1.17,1.95,2.56.72,2.52.72,2.52,1.4,5a3.85,3.85,0,0,1-.92,3.55h0c-2.8,2-3.19,6.2-.85,9.24a7.42,7.42,0,0,0,3.48,2.53,4.16,4.16,0,0,1,2.76,3.17c.55,2.71.55,2.71,1.1,5.46a4,4,0,0,1-1.34,3.94,6.8,6.8,0,0,0-2.41,6.82c.09,1.11-.15,1.4-1.05,2.39-1.63,1.72-1.14,1.3-2.89,3-2.36,2.37-3.09,1.34-3.37,1.17a6.78,6.78,0,0,0-2.94-1.4A4,4,0,0,1,419,115.4c-.51-2.81-.51-2.81-1-5.64a4.1,4.1,0,0,1,1.5-4.07,7.12,7.12,0,0,0,1.15-9.86,7.22,7.22,0,0,0-3.6-2.52,4.2,4.2,0,0,1-2.94-3.2c-.56-2.71-.56-2.71-1.13-5.39a3.57,3.57,0,0,1,1.39-3.78,6,6,0,0,0,.95-8.85,7.48,7.48,0,0,0-5.77-2.56c-.85-3.55-.85-3.55-1.71-7a2.6,2.6,0,0,1,1.3-3,4.15,4.15,0,0,0,2.15-4.6,2.53,2.53,0,0,1,1-2.86c1.4-1,1-.79,2.33-1.86.73-.61,2.47.59,2.47.59,2.21,1.27,5.13,1.63,7.06.72,2.25-1,2.11-3.24-.1-5A9.49,9.49,0,0,0,416,44.87,2.38,2.38,0,0,0,414.29,48c.16.74,0,.86-.77,1.46a15.93,15.93,0,0,1-2.37,1.88c-1.78,1.14-2.92.34-2.92.34a8.53,8.53,0,0,0-3.3-.76s-.79-.07-1.18-1.75-.45-1.64-.92-3.3c-.25-.88-.24-1.39.47-1.55.25-.08.51-.16.74-.26,2.49-1,2.84-2.76.89-3.93a11.24,11.24,0,0,0-7.7-.45c-1.63.58-2.46,1.51-2.34,2.43a5.77,5.77,0,0,1-1.17,1.11c-1.36,1.16-1,.85-2.42,2-.76.62-1,.71-2.79.42a9.42,9.42,0,0,0-6.37.87c-2.73,1.52-3.71,4-2.06,5.5a4.59,4.59,0,0,0,2.8,1.22,2.34,2.34,0,0,1,2.29,1.86c.25,1.87.25,1.87.6,3.8A3.26,3.26,0,0,1,384.16,62c-2.93,2-3.75,5.58-1.74,8a5.79,5.79,0,0,0,3.3,2,3.34,3.34,0,0,1,2.64,2.7l.89,5a3.88,3.88,0,0,1-1.61,3.81,6.85,6.85,0,0,0-1.46,9.57,7.09,7.09,0,0,0,9.93,1.23,6.91,6.91,0,0,0,2.56-7.43v0c-.51-1.51,1-2.76,1.55-3.38s3.24-3.88,5-3.1A7.42,7.42,0,0,0,408.08,82,4,4,0,0,1,411,85c.58,2.69.58,2.69,1.13,5.41a3.92,3.92,0,0,1-1.47,4,7.07,7.07,0,0,0-1.25,9.92,7.21,7.21,0,0,0,3.68,2.54,4.12,4.12,0,0,1,2.92,3.26l1,5.39a4.14,4.14,0,0,1-.5,2.88,6.36,6.36,0,0,0-.72.39,7.24,7.24,0,0,0-3,7.77,6.77,6.77,0,0,0,1.31,3.15,6.84,6.84,0,0,0,9.66,1.09,7.26,7.26,0,0,0,2.56-7.58s-.68-1.75,1.51-4.06c1.67-1.76,1.23-1.29,2.84-3,.67-.73,1.09-.75,1.59-.32a5.89,5.89,0,0,0,3,2.25,3.64,3.64,0,0,1,2.54,3.06c.39,2.64.39,2.64.74,5.31a4.2,4.2,0,0,1-1.49,3.84c-2.83,2.39-3.59,6.52-1.68,9.17a4.91,4.91,0,0,0,2.92,2,2.64,2.64,0,0,1,2.16,2.47c.16,2.3.16,2.3.28,4.54a4.18,4.18,0,0,1-1.66,3.37c-2.71,2.16-3.7,5.54-2.23,7.45s4.59,1.48,7.16-.56,3.66-5.28,2.48-7.2a3.15,3.15,0,0,0-2.33-1.4,2.11,2.11,0,0,1-1.86-2.16c-.12-2.22-.12-2.22-.27-4.49a4.51,4.51,0,0,1,1.6-3.61c2.62-2.33,3.42-6.26,1.77-8.89a5,5,0,0,0-2.85-2.06,3.25,3.25,0,0,1-2.31-2.85c-.35-2.64-.35-2.64-.73-5.31a4.26,4.26,0,0,1,1.4-3.9,7.46,7.46,0,0,0,1.14-9.56,6.17,6.17,0,0,0-3.18-2.45,4.06,4.06,0,0,1-2.63-3.18c-.54-2.71-.54-2.71-1.11-5.43a3.73,3.73,0,0,1,1.22-3.78,6.17,6.17,0,0,0,1.87-6.4h0c-.07-2.62,2.53-4.13,3.87-5.21.73-.61,1.78.29,2.86.62l0,0c.18.09.35.19.52.26A4.57,4.57,0,0,1,448,84.72c.62,2.43.62,2.43,1.25,5a3.55,3.55,0,0,1-.92,3.51c-2.3,2-2.58,6.13-.6,9.08a6,6,0,0,0,2.89,2.42,3.79,3.79,0,0,1,2.23,3c.4,2.58.4,2.58.78,5.15a4.42,4.42,0,0,1-1.18,3.76,7.74,7.74,0,0,0-1.32,9.09,4.13,4.13,0,0,0,2.51,2h-.05c.93.55,1.52.7,1.63,2,.21,2.28.21,2.28.45,4.53a5.65,5.65,0,0,1-1.44,4.15c-2.4,2.33-3.34,6-2.15,8s3.66,1.7,5.85-.53,3.09-5.61,2.22-7.64A2.56,2.56,0,0,0,458.64,136.91Zm-53-66.22a5.88,5.88,0,0,0-2.47,6.44c.12,2.25-2.68,4.34-3.64,5.47s-1.85,1.88-2.86,1.14h0a6.9,6.9,0,0,0-2.79-1.5,3.66,3.66,0,0,1-2.79-2.94c-.48-2.54-.48-2.54-.9-5a3.52,3.52,0,0,1,1.57-3.56c2.95-2.09,3.6-5.74,1.48-8.14A6.18,6.18,0,0,0,390,60.79a2.86,2.86,0,0,1-2.49-2.23c-.33-1.94-.33-1.94-.64-3.8a2.75,2.75,0,0,1,1.54-2.68c2-1.17,2.95-2.83,2.61-4.23A5,5,0,0,1,392.29,46a21.42,21.42,0,0,1,2.39-2c.75-.67,1.7-.07,2.77.25a8.16,8.16,0,0,0,3.69.42,2.58,2.58,0,0,1,.79,1.48c.48,1.67.41,1.69.93,3.35s0,1.6,0,1.6a6.74,6.74,0,0,0-1.77.61c-2.74,1.53-3.36,4.54-1.23,6.74a6.93,6.93,0,0,0,3.37,1.86,3.48,3.48,0,0,1,2.73,2.5c.83,3.41.83,3.41,1.68,7A7.47,7.47,0,0,0,405.68,70.69Z"/><path class="cls-3" d="M470.1,125.47c-.62-2.19-2.42-2.32-4-.19s-2.47,5.83-1.63,8,2.53,1.87,4-.29A11.26,11.26,0,0,0,470.1,125.47Z"/><path class="cls-3" d="M453.16,156c-2.3,2.1-3.58,4.83-2.88,6,.49,1.05,2.52.22,4.58-1.75s3.35-4.43,3.06-5.58C457.51,153.36,455.36,153.91,453.16,156Z"/><path class="cls-3" d="M397.76,37c2.68-.11,4.59-.55,4.59-.8s-2-.24-4.57-.14-4.88.35-4.88.59S394.44,37.11,397.76,37Z"/></svg>