<?xml version="1.0" standalone="no"?>
<!DOCTYPE svg PUBLIC "-//W3C//DTD SVG 20010904//EN"
 "http://www.w3.org/TR/2001/REC-SVG-20010904/DTD/svg10.dtd">
<svg version="1.0" xmlns="http://www.w3.org/2000/svg"
 width="192.000000pt" height="192.000000pt" viewBox="0 0 192.000000 192.000000"
 preserveAspectRatio="xMidYMid meet">

<g transform="translate(0.000000,192.000000) scale(0.100000,-0.100000)"
fill="#000000" stroke="none">
<path d="M0 960 l0 -960 960 0 960 0 -2 958 -3 957 -957 3 -958 2 0 -960z
m785 665 c56 -55 13 -115 -81 -115 -60 0 -94 23 -94 63 0 70 121 106 175 52z
m-261 5 c36 -13 37 -71 1 -104 -54 -50 -147 -39 -153 18 -7 60 85 112 152 86z
m516 -6 c54 -36 64 -70 30 -104 -33 -33 -101 -27 -145 11 -40 35 -44 60 -15
89 25 25 95 27 130 4z m215 -34 c41 -25 67 -64 63 -93 -3 -20 -9 -22 -55 -22
-46 1 -57 5 -88 35 -33 32 -46 75 -28 93 13 14 77 6 108 -13z m182 -51 c37
-23 68 -72 59 -95 -14 -36 -103 2 -131 56 -31 59 7 79 72 39z m163 -101 c30
-41 38 -68 21 -68 -16 0 -91 92 -91 112 0 28 33 7 70 -44z m-814 -9 c32 -30
33 -88 1 -125 -18 -20 -35 -28 -75 -32 -47 -4 -54 -2 -82 26 -46 46 -36 116
21 149 34 19 105 10 135 -18z m289 -10 c32 -28 36 -37 33 -72 -2 -29 -10 -45
-29 -59 -52 -39 -136 -21 -165 34 -21 41 -17 66 15 99 42 41 97 41 146 -2z
m209 -4 c61 -29 87 -113 46 -150 -43 -39 -129 -8 -155 57 -20 50 -19 55 10 83
28 29 54 31 99 10z m228 -64 c35 -36 39 -44 36 -83 -3 -40 -5 -43 -35 -46 -18
-2 -42 2 -53 8 -30 16 -60 69 -60 106 0 66 53 73 112 15z m122 -26 c33 -25 56
-69 56 -107 0 -42 -12 -47 -48 -22 -29 20 -52 65 -52 102 0 44 12 51 44 27z
m140 -170 c7 -30 7 -30 -9 -8 -22 31 -45 88 -45 110 1 22 45 -61 54 -102z
m-703 39 c60 -31 75 -127 26 -171 -46 -42 -128 -35 -167 14 -25 32 -27 99 -4
131 29 42 92 54 145 26z m250 -17 c87 -59 68 -187 -29 -187 -44 0 -76 20 -97
60 -27 53 -12 113 35 137 35 18 52 16 91 -10z m222 -28 c31 -23 52 -86 43
-123 -3 -14 -18 -33 -32 -42 -23 -16 -28 -16 -59 -1 -44 21 -67 57 -69 106 -1
73 61 105 117 60z m167 -51 c60 -99 15 -189 -54 -107 -29 34 -37 83 -21 127 9
25 55 13 75 -20z m99 -67 c6 -19 11 -50 11 -70 l-1 -36 -19 23 c-20 24 -44
117 -34 134 9 14 29 -10 43 -51z m-238 -140 c63 -64 14 -197 -66 -177 -66 17
-85 136 -30 183 35 31 61 29 96 -6z m165 -16 c20 -30 23 -117 5 -139 -20 -24
-58 -20 -77 10 -20 30 -23 99 -5 132 16 30 56 29 77 -3z m102 -54 c8 -88 -15
-133 -37 -70 -14 41 -14 95 0 121 16 30 31 9 37 -51z m-1518 39 c0 -5 -8 -10
-19 -10 -39 0 -42 -19 -39 -239 3 -195 5 -212 24 -238 49 -65 150 -51 193 27
22 40 25 58 29 199 5 186 -1 220 -46 241 -17 8 -32 18 -32 23 0 4 34 7 75 7
72 0 97 -12 55 -25 -27 -8 -28 -21 -33 -226 -4 -162 -6 -181 -28 -225 -32 -64
-79 -88 -169 -88 -76 0 -130 22 -161 65 -29 41 -39 121 -39 306 l0 163 -25 6
c-57 14 -18 24 95 24 73 0 120 -4 120 -10z m590 0 c0 -5 -8 -10 -18 -10 -40 0
-42 -15 -42 -262 l0 -239 33 -14 c30 -13 23 -14 -93 -14 -116 0 -123 1 -97 15
l27 15 0 244 0 245 -25 6 c-57 14 -18 24 95 24 73 0 120 -4 120 -10z m423
-132 c31 -79 75 -192 98 -252 24 -64 52 -119 67 -133 l25 -23 -124 1 c-95 0
-118 3 -96 11 34 12 34 28 1 117 l-26 71 -85 0 -84 0 -16 -37 c-9 -21 -17 -60
-17 -87 -1 -47 0 -49 34 -62 33 -12 31 -13 -49 -13 l-83 -1 29 33 c18 21 61
117 122 275 91 234 95 242 121 242 26 0 30 -8 83 -142z m501 -102 c11 -45 -23
-154 -44 -141 -25 15 1 165 28 165 6 0 13 -11 16 -24z m-91 -23 c13 -44 0
-101 -29 -130 -20 -20 -27 -22 -44 -13 -32 17 -44 58 -30 103 23 78 86 103
103 40z m42 -249 c-9 -23 -23 -48 -31 -54 -31 -27 -7 85 29 128 20 25 22 -23
2 -74z"/>
<path d="M1156 647 c-20 -51 -36 -96 -36 -100 0 -4 34 -7 75 -7 41 0 75 2 75
4 0 6 -70 190 -74 194 -2 1 -20 -39 -40 -91z"/>
</g>
</svg>
