<svg id="Capa_1" data-name="Capa 1" xmlns="http://www.w3.org/2000/svg" viewBox="0 0 75 75"><defs><style>.cls-1{fill:#a68829;}</style></defs><title>inicio-web</title><path class="cls-1" d="M5.67,36.37a1.43,1.43,0,0,1,1.52-.88c4,0,8,0,12,0A.74.74,0,0,0,20,35c.49-1.19,1.06-2.34,1.59-3.51.08-.15.16-.3.27-.54H19.31c-1.37,0-2.74,0-4.1,0-.9,0-1.46-.47-1.45-1.2s.57-1.17,1.43-1.17c2.61,0,5.23,0,7.84,0a1,1,0,0,0,.73-.33,23.88,23.88,0,0,1,13-8.24c.34-.08.5-.21.48-.59,0-.71,0-1.42,0-2.13a.5.5,0,0,0-.39-.56,4,4,0,0,1-2.63-4.46,4.06,4.06,0,0,1,4.14-3.37h8.13a4,4,0,0,1,1.43,7.91l-.18.08v2.83a52,52,0,0,1,5.13,2A23.39,23.39,0,0,1,66.24,40.15a23.24,23.24,0,0,1-3.51,15.94,1.21,1.21,0,0,1-1.32.69,1,1,0,0,1-.93-.94,2.26,2.26,0,0,1,.34-1.15,21.86,21.86,0,0,0,2.89-7.42A21.61,21.61,0,1,0,37.13,64.13,21.16,21.16,0,0,0,53.9,61.58a2.67,2.67,0,0,1,.36-.22,1.18,1.18,0,1,1,1.22,2,23,23,0,0,1-7.26,3.12A23.92,23.92,0,0,1,20.27,52.24a.72.72,0,0,0-.79-.51c-2.46,0-4.91,0-7.36,0a3.94,3.94,0,0,1-.77-.05,1.16,1.16,0,0,1,0-2.27,3.94,3.94,0,0,1,.77-.05h6.77l.37,0-.73-4.54h-5c-.85,0-1.4-.5-1.38-1.22s.55-1.15,1.38-1.15h5L19,37.87h-.67c-3.66,0-7.33,0-11,0a1.75,1.75,0,0,1-1.7-.8ZM42.42,14.54h4a2.76,2.76,0,0,0,.81-.09,1.64,1.64,0,0,0,1.12-1.75,1.68,1.68,0,0,0-1.79-1.47q-4.12,0-8.25,0a1.66,1.66,0,1,0,0,3.31Zm-2.8,4.78h5.67V17H39.62Z"/><path class="cls-1" d="M5.67,50.14l.24-.3a1.19,1.19,0,0,1,1.77-.13,1.18,1.18,0,1,1-1.8,1.5c-.08-.11-.14-.24-.21-.35Z"/><path class="cls-1" d="M42.48,24.81A18.42,18.42,0,1,1,24.07,43.24,18.42,18.42,0,0,1,42.48,24.81Zm0,2.38a16,16,0,1,0,16.05,16A16,16,0,0,0,42.47,27.19Z"/><path class="cls-1" d="M58.6,58.18a1.17,1.17,0,1,1,0,2.34,1.17,1.17,0,0,1,0-2.34Z"/><path class="cls-1" d="M38.77,43A8,8,0,0,1,39,42a.57.57,0,0,0-.18-.72c-.71-.68-1.4-1.39-2.1-2.09s-.74-1.34-.22-1.87,1.25-.46,1.92.21,1.38,1.36,2,2.06a.6.6,0,0,0,.76.19,3.32,3.32,0,0,1,2.44,0,.6.6,0,0,0,.76-.19c1.73-1.74,3.47-3.47,5.21-5.21a4.44,4.44,0,0,1,.38-.37,1.18,1.18,0,0,1,1.67,1.66c-.4.44-.83.85-1.25,1.27-1.42,1.41-2.82,2.83-4.25,4.23a.78.78,0,0,0-.24,1,3.67,3.67,0,0,1-5,4.47A3.72,3.72,0,0,1,38.77,43Zm5,.22a1.3,1.3,0,0,0-1.29-1.33,1.28,1.28,0,0,0-1.32,1.23,1.31,1.31,0,0,0,1.25,1.38A1.33,1.33,0,0,0,43.79,43.26Z"/><path class="cls-1" d="M43.67,31.07c0,.2,0,.4,0,.6a1.18,1.18,0,0,1-2.35.09,7.06,7.06,0,0,1,0-1.3,1.18,1.18,0,0,1,2.35.08c0,.18,0,.36,0,.53Z"/><path class="cls-1" d="M54.61,42.06c.19,0,.39,0,.59,0a1.18,1.18,0,0,1,1.16,1.11,1.2,1.2,0,0,1-1.09,1.25,6.18,6.18,0,0,1-1.29,0,1.15,1.15,0,0,1-1.07-1.25,1.17,1.17,0,0,1,1.17-1.1C54.25,42.05,54.43,42.06,54.61,42.06Z"/><path class="cls-1" d="M41.29,55.36c0-.19,0-.39,0-.59a1.19,1.19,0,0,1,1.14-1.13,1.16,1.16,0,0,1,1.2,1,6.09,6.09,0,0,1,0,1.35,1.18,1.18,0,0,1-1.23,1.11A1.2,1.2,0,0,1,41.29,56C41.28,55.76,41.29,55.56,41.29,55.36Z"/><path class="cls-1" d="M30.38,42.05c.21,0,.43,0,.65,0a1.13,1.13,0,0,1,1,1.12,1.1,1.1,0,0,1-.94,1.18,6.57,6.57,0,0,1-1.47,0,1.16,1.16,0,0,1-1-1.18A1.17,1.17,0,0,1,29.72,42c.22,0,.44,0,.66,0Z"/></svg>