<svg id="Capa_1" data-name="Capa 1" xmlns="http://www.w3.org/2000/svg" viewBox="0 0 75 75"><defs><style>.cls-1{fill:#a68829;}</style></defs><title>inicio-web</title><path class="cls-1" d="M70.11,37.44a2.68,2.68,0,0,1-1.72,1.48c-1.32.47-2.62,1-3.92,1.54a2,2,0,0,1-2.23-.19.48.48,0,0,0-.45,0c-1.06.66-2.1,1.34-3.14,2,.68,3.36-.87,5.22-4.14,5-.67,2.44-1.61,3.17-4.27,3.26a3.59,3.59,0,0,1-1.58,2.82,3.69,3.69,0,0,1-3.22.42,3.58,3.58,0,0,1-2.91,3.07c-1.69.37-2.86-.64-4.11-1.6-.27.32-.53.63-.81.93a3.12,3.12,0,0,1-3.28,1A3.17,3.17,0,0,1,32,54.67a.62.62,0,0,0-.4-.42,3.23,3.23,0,0,1-3.22-2.84l-.06-.16c-2.28-.29-3.19-1.07-3.57-3-3.12-.51-4.29-2.36-3.11-5-.2-.14-.41-.31-.64-.46-1.15-.73-2.3-1.47-3.46-2.17a1.35,1.35,0,0,0-.67,0,4.48,4.48,0,0,1-1.54,0c-1.63-.55-3.21-1.23-4.81-1.85a2.34,2.34,0,0,1-1.18-1.26v-.95c.35-.83.71-1.66,1-2.5q2.52-6.36,5-12.73A1.89,1.89,0,0,1,18.23,20l4.3,1.69a1.92,1.92,0,0,1,1.36,1.94.56.56,0,0,0,.27.41,8.32,8.32,0,0,0,3.59.86,25.07,25.07,0,0,1,7.41.78.67.67,0,0,0,.5-.13,4.11,4.11,0,0,0,.6-.58,4.66,4.66,0,0,1,4.38-1.4l2.87.46c.64.1,1,.48.94,1s-.51.86-1.18.76c-1.08-.15-2.15-.33-3.23-.49a2.59,2.59,0,0,0-2.33.76,55.44,55.44,0,0,1-8.33,7c-.52.35-.52.68,0,1.08a3.47,3.47,0,0,0,3.42.55,11.3,11.3,0,0,0,4.07-2.48,2.11,2.11,0,0,1,3.32.09,10.12,10.12,0,0,0,8.69,3,2.23,2.23,0,0,1,1.74.48c2.28,1.72,4.58,3.4,6.9,5.11l3.82-2.45L56.25,25.6c-.6.21-1.15.37-1.66.6a8.54,8.54,0,0,1-5.57.52c-.44-.1-.9-.14-1.34-.22a.9.9,0,0,1-.85-1,.86.86,0,0,1,1.09-.74c.82.1,1.64.23,2.46.38a5.13,5.13,0,0,0,2.74-.28l2.42-.9c0-1.4.29-1.82,1.6-2.34l4.24-1.67A1.81,1.81,0,0,1,64,21.06c.74,1.85,1.47,3.71,2.2,5.56.26.65.11,1.14-.41,1.36s-1,0-1.25-.73c-.74-1.85-1.47-3.71-2.21-5.56a.94.94,0,0,0-.1-.17l-4.88,1.93L63.43,39,68.34,37c-.7-1.77-1.37-3.5-2-5.22-.06-.15-.13-.29-.18-.44a.89.89,0,0,1,.5-1.13.86.86,0,0,1,1.14.47c.22.47.39.95.58,1.43.59,1.46,1.19,2.91,1.78,4.37ZM39.55,54a15.18,15.18,0,0,0,1.89,1.1,1.66,1.66,0,0,0,2-.91,1.56,1.56,0,0,0-.51-2c-.49-.38-1-.74-1.45-1.14a.85.85,0,0,1-.17-1.26.89.89,0,0,1,1.27-.12c.18.12.35.27.52.4.84.63,1.65,1.29,2.52,1.88a1.76,1.76,0,0,0,2.47-.43,1.72,1.72,0,0,0-.45-2.4c-.75-.58-1.51-1.15-2.25-1.74a.89.89,0,0,1-.23-1.3.87.87,0,0,1,1.31-.1c.5.36,1,.74,1.46,1.11.65.49,1.28,1,1.95,1.46A1.77,1.77,0,0,0,52.34,48a1.68,1.68,0,0,0-.43-2.39c-.87-.68-1.76-1.34-2.63-2A.87.87,0,0,1,49.42,42a1,1,0,0,1,1.09.24c1.2.93,2.41,1.86,3.63,2.77a2.78,2.78,0,0,0,1,.45,1.72,1.72,0,0,0,1.83-1,1.78,1.78,0,0,0-.61-2.17c-2.26-1.7-4.54-3.37-6.83-5a1.15,1.15,0,0,0-.71-.15A12.08,12.08,0,0,1,39,33.55c-.36-.36-.58-.38-1,0a12.69,12.69,0,0,1-4.57,2.8,5.26,5.26,0,0,1-5-.67c-1.7-1.24-1.63-3,.08-4.23s3.32-2.56,5-3.84c.12-.1.22-.24.39-.41-.4-.07-.68-.16-1-.18-1.85-.11-3.71-.26-5.56-.31a7.47,7.47,0,0,1-2.89-.55c-.41-.18-.83-.34-1.28-.53L18,38.72l4.79,3c.5-.58,1-1.15,1.47-1.68a3.24,3.24,0,0,1,5.49,1.54c0,.17.09.34.14.51a3.37,3.37,0,0,1,2.4.77,3.53,3.53,0,0,1,1.16,2.24c2.15.13,3,.89,3.61,3A3.34,3.34,0,0,1,39.55,54ZM17.2,21.5,11.08,37,16,39l6.11-15.51Zm7.37,24.87a2.42,2.42,0,0,0,.81-.42c.84-.92,1.65-1.86,2.42-2.84a1.44,1.44,0,0,0-2.18-1.85c-.84.91-1.65,1.86-2.43,2.83a1.32,1.32,0,0,0-.08,1.51A1.54,1.54,0,0,0,24.57,46.37Zm1.87,1.52a1.69,1.69,0,0,0,1,1.4,1.41,1.41,0,0,0,1.67-.39c.72-.81,1.42-1.64,2.12-2.48a1.46,1.46,0,0,0-.07-2.16,1.47,1.47,0,0,0-2.15.27c-.69.78-1.38,1.58-2,2.39A6.38,6.38,0,0,0,26.44,47.89Zm12.45,3.58a1.65,1.65,0,0,0-1-1.37,1.42,1.42,0,0,0-1.62.39c-.75.85-1.48,1.7-2.19,2.57a1.46,1.46,0,1,0,2.22,1.88c.73-.83,1.45-1.67,2.14-2.53A4.06,4.06,0,0,0,38.89,51.47Zm-3.59-3a1.65,1.65,0,0,0-1-1.4,1.41,1.41,0,0,0-1.67.39c-.73.83-1.45,1.67-2.15,2.53a1.43,1.43,0,0,0,.1,2.11,1.47,1.47,0,0,0,2.11-.22c.72-.81,1.43-1.64,2.11-2.49A4.65,4.65,0,0,0,35.3,48.47Z"/></svg>