<svg id="Capa_1" data-name="Capa 1" xmlns="http://www.w3.org/2000/svg" viewBox="0 0 75 75"><defs><style>.cls-1{fill:#a68829;}</style></defs><title>inicio-web</title><path class="cls-1" d="M13.47,69.41a3,3,0,0,1-2.4-2.56,40.24,40.24,0,0,1,0-5.38A3.46,3.46,0,0,1,13,58.84l.54-.32a4.14,4.14,0,0,1-.24-3.34c.91-3.84,1.88-7.68,2.63-11.56A25,25,0,0,0,16,39L15.53,39A3,3,0,0,1,13,36c0-3.72,0-7.44,0-11.17a3,3,0,0,1,2-2.88L20,19.83a6.61,6.61,0,0,1-1.61-6.44A6.33,6.33,0,0,1,21,9.73a6.57,6.57,0,0,1,8.53,1.07A6.67,6.67,0,0,1,29,20.22c1.08,1,2.15,2,3.25,3,.11.1.44.06.61,0,2-1,4.09-2,6.14-3a3,3,0,1,1,2.63,5.47c-2.79,1.36-5.59,2.69-8.39,4a3,3,0,0,1-2.89-.06,5.41,5.41,0,0,1-.88-.7c-.47-.42-.92-.85-1.46-1.36l-.64,4.73,2.81.57a3.63,3.63,0,0,1,3.15,3.66c.28,3.57.61,7.14.88,10.71.07.93,0,1.87,0,2.83h1.15v-3.9a4,4,0,0,1,4.14-4.18c2.43,0,4.86,0,7.3,0h.71c0-1.24,0-2.43,0-3.61A6.61,6.61,0,0,1,47.62,37a4,4,0,0,1,4-3c1,0,1.93,0,2.94,0,0-.24,0-.43,0-.63,0-4.11,0-8.23,0-12.35a.73.73,0,0,0-.51-.79c-2.58-1.15-5.15-2.33-7.73-3.49a2.08,2.08,0,0,1,0-4c2.86-1.27,5.69-2.58,8.54-3.87C56,8.34,56.59,8.74,56.59,10v24h2.6a4.12,4.12,0,0,1,4.51,4.49V65.67c0,2.17-.5,2.92-2.49,3.74Zm48.18-6.1c0-.21,0-.34,0-.48q0-12.31,0-24.64A2,2,0,0,0,59.46,36H51.8a2.07,2.07,0,0,0-2.3,2.32c0,1.46,0,2.93,0,4.39,0,1.11-.31,1.41-1.42,1.41H39.65a2.05,2.05,0,0,0-2.31,2.3v4.45c0,1-.33,1.35-1.35,1.35H27.45a2,2,0,0,0-2.26,2.22c0,1.5,0,3,0,4.51,0,1-.33,1.36-1.35,1.36H15.3a2.19,2.19,0,0,0-2.18,3ZM15,30.36c0,1.74,0,3.48,0,5.22a2.35,2.35,0,0,0,.06.65,1,1,0,0,0,1,.74,1,1,0,0,0,.94-.9,5.86,5.86,0,0,0,0-.59v-9a1.14,1.14,0,0,1,.64-1.22c.89-.39,1.77-.79,2.67-1.15a1,1,0,1,1,.77,1.86,11.85,11.85,0,0,1-1.42.6.83.83,0,0,0-.64.95c0,2.73,0,5.46,0,8.19a3.4,3.4,0,0,1-.47,1.85,2.91,2.91,0,0,0-.51,1.92c0,1.11,0,2.21,0,3.32A6.35,6.35,0,0,1,18,44q-1.38,6-2.77,12a3,3,0,0,0-.1.93,1.47,1.47,0,0,0,1.4,1.3A1.54,1.54,0,0,0,18.1,56.9c.76-3.29,1.45-6.6,2.29-9.87a23,23,0,0,0,.74-6.74c0-.85,0-1.71,0-2.56s.52-1.32,1.43-1.14l4.65.92c1,.2,1.15.45,1.23,1.44.26,3.25.53,6.51.82,9.76a1.45,1.45,0,0,0,1.57,1.36,1.48,1.48,0,0,0,1.43-1.52c0-.31,0-.63,0-.95l-.93-11.05A1.55,1.55,0,0,0,29.89,35l-3.6-.72c-.86-.17-1.15-.57-1-1.43l1-7.17a1.13,1.13,0,0,1,.73-1.05,1.11,1.11,0,0,1,1.17.38l2.77,2.6c.65.61.89.64,1.69.26L40.48,24a2.36,2.36,0,0,0,.52-.28,1,1,0,0,0,.28-1.23A1,1,0,0,0,40.09,22a4.25,4.25,0,0,0-.49.21L33,25.4c-.9.43-1.08.4-1.83-.3l-3.72-3.5a.64.64,0,0,0-.77-.18,6.46,6.46,0,0,1-4.36-.05,1.33,1.33,0,0,0-.88,0c-1.86.77-3.7,1.6-5.56,2.37A1.28,1.28,0,0,0,15,25.13C15.05,26.87,15,28.62,15,30.36Zm-2,35c-.19,1.34,0,2,1.66,2q22.65,0,45.29,0c.22,0,.44,0,.66,0a1,1,0,0,0,1-.88,8.33,8.33,0,0,0,0-1.12ZM23.24,38.79c0,.11-.06.15-.07.19,0,.29,0,.59,0,.89a26.5,26.5,0,0,1-.95,8.31c-.85,3.33-1.56,6.69-2.34,10h3.29v-.68c0-1.21,0-2.42,0-3.62a3.68,3.68,0,0,1,2.18-3.29,12.09,12.09,0,0,1,2-.59c-.15-1.65-.32-3.38-.47-5.1s-.28-3.27-.39-4.91a.68.68,0,0,0-.69-.75C25,39.15,24.11,39,23.24,38.79ZM20.12,15.18a4.56,4.56,0,1,0,4.58-4.55A4.58,4.58,0,0,0,20.12,15.18Zm34.43-4-7.66,3.49,7.66,3.47Z"/></svg>