<svg id="Capa_1" data-name="Capa 1" xmlns="http://www.w3.org/2000/svg" viewBox="0 0 75 75"><defs><style>.cls-1{fill:#a68829;}</style></defs><title>inicio-web</title><path class="cls-1" d="M35.43,51.06l5.17-4.18c-.43-.88-.84-1.75-1.29-2.61A.58.58,0,0,0,38.9,44c-.65-.09-1.3-.15-1.95-.22s-1-.45-1-1a.91.91,0,0,1,1.1-.88c.93.08,1.85.19,2.78.28a1.23,1.23,0,0,1,1,.82c.95,2,1.92,3.94,2.88,5.91l.31.61c.15,0,.28-.07.4-.12l4.65-1.93a1.59,1.59,0,0,0,1-2.3c-.25-.65-.54-1.3-.8-1.93-.51.09-1,.19-1.43.24a1.8,1.8,0,0,1-.65-.06c-1.38-.3-3.49-2.73-3.4-4.13A18.62,18.62,0,0,0,44,36.14a1.44,1.44,0,0,1,.3-.88.76.76,0,0,0-.07-1.09c-.51-.65-1-1.34-1.47-2a2.85,2.85,0,0,0-.44-.48c-.56-.47-.68-.4-1.15.15-.77.91-1.61,1.75-2.42,2.62l1.83.21c.74.08,1.11.47,1,1.09s-.53.87-1.24.8L32,35.66l-.61,5.66c.59.07,1.13.12,1.67.2s1,.54.94,1.07a1,1,0,0,1-1.18.8C29,43,25.18,42.6,21.35,42.17c-.52-.06-.83,0-.93.58a1.82,1.82,0,0,1-.18.51,1.35,1.35,0,0,0,.12,1.34,18.12,18.12,0,0,0,1.4,2.46,3.06,3.06,0,0,1,.31,1.86,10.31,10.31,0,0,1-.6,2.29c-.49,1.42-1.77,2-3.59,1.78-.09.67-.24,1.34-.29,2-.22,3.24-.41,6.48-.62,9.71A1.92,1.92,0,0,1,17,65C17,65.6,16.59,66,16,66a.94.94,0,0,1-1-1.06c0-1.8,0-3.6.18-5.39.18-2.27.49-4.52.72-6.79a.65.65,0,0,0-.25-.48,2.87,2.87,0,0,1-1.45-3.52c.29-1.09.6-2.17.9-3.26a2.86,2.86,0,0,1,2.74-2.3.65.65,0,0,0,.42-.28c.16-.36.27-.74.4-1.1a13.23,13.23,0,0,1-1.28-.79,4.48,4.48,0,0,1-1.58-4.88,13.64,13.64,0,0,1,9-9.32.75.75,0,0,0,.62-.86c0-2.33,0-4.67,0-7A9.78,9.78,0,0,1,27,13.81c.39-.64.92-.83,1.43-.52s.58.84.19,1.51a7.94,7.94,0,0,0-1.14,3.63c.05,0,.08.07.11.07,1.76,0,3.52,0,5.28-.09A9.07,9.07,0,0,0,37.08,17c.91-.56,1.33-.44,1.82.53.21.41.39.83.63,1.21a3.62,3.62,0,0,0,2.78,1.71l1.22.11A8.7,8.7,0,0,0,41.82,14a8.08,8.08,0,0,0-10.38-2l-.3.19a1,1,0,1,1-.95-1.64A9.75,9.75,0,0,1,39.66,10a1.18,1.18,0,0,0,1.14,0A7.7,7.7,0,0,1,44.45,9c2.47,0,4.95,0,7.42,0a1.33,1.33,0,0,1,1.19.63A7.13,7.13,0,0,1,53,18a1.52,1.52,0,0,1-1,.54c-2.14.05-4.27,0-6.49,0,0,.09,0,.26,0,.43,0,1.7,0,3.41-.11,5.1a4.15,4.15,0,0,1-2.3,3.33.89.89,0,0,0-.52.76c-.06.45-.16.9-.25,1.4a4.55,4.55,0,0,1,2.34,2,.65.65,0,0,0,.46.28A5.91,5.91,0,0,0,47.66,31c-.78-.4-1.57-.79-2.33-1.22a2.91,2.91,0,0,1-.63-.54,1,1,0,0,1-.07-1.38.9.9,0,0,1,1.37,0A4.26,4.26,0,0,0,48.29,29l.17,0c1.19.13,1.6,0,2-1.15A12.19,12.19,0,0,0,51.15,25c.11-1.12,0-2.26,0-3.39,0-.75.34-1.18.93-1.19s1,.43,1,1.16a32,32,0,0,1-.24,5.2,8.31,8.31,0,0,1-6.16,6.63l-.48.16c.05.09.07.14.09.14a3.52,3.52,0,0,1,3.19,1.58c.59.77,1.28,1.46,1.9,2.2a2.83,2.83,0,0,1-.24,4.09c-.2.19-.41.33-.25.69a.7.7,0,0,0,.68.49,5.41,5.41,0,0,1,4.77,3.48,4.91,4.91,0,0,1-1,5.36,6.37,6.37,0,0,1-1.44,1.13c-2.09,1.28-4.2,2.53-6.3,3.8a7.63,7.63,0,0,1-9.54-.71l-.35-.28c.07.69.13,1.26.19,1.83.3,2.48.6,4.95.89,7.43A1,1,0,0,1,38,66c-.56.06-1-.34-1-1-.43-3.6-.85-7.19-1.3-10.78a1.48,1.48,0,0,0-.48-.87c-1.74-1.52-3.52-3-5.29-4.5a1,1,0,0,1-.47-1.17A.94.94,0,0,1,31,47.31c1.28,1.06,2.54,2.14,3.81,3.21C35,50.7,35.2,50.88,35.43,51.06Zm-8-30.64c0,2.2,0,4.33,0,6.46a7.72,7.72,0,0,0,.1,1.18,6.76,6.76,0,0,0,6.94,5.65,6.65,6.65,0,0,0,6.24-6.49A1.2,1.2,0,0,1,41.63,26a2.72,2.72,0,0,0,1.92-2.28c.15-.87-.22-1.3-1.1-1.35a5.48,5.48,0,0,1-4.68-2.88l-.32-.54C34.32,20.8,30.88,20.38,27.42,20.42Zm-1.75,8.23a.27.27,0,0,0-.12,0,3.88,3.88,0,0,0-.45.14,11.84,11.84,0,0,0-7.33,7.71,2.72,2.72,0,0,0,2.4,3.67l7.49.8,1.89.16.58-5.61a4.77,4.77,0,0,0-.52-.09l-6.78-.73c-.74-.07-1.15-.47-1.1-1a1,1,0,0,1,1.33-.81,2,2,0,0,0,2.32-.94c.25-.36.52-.7.74-1.07a.76.76,0,0,0,.09-.55C26.06,29.72,25.85,29.18,25.67,28.65ZM36.9,52.34c1,.84,1.9,1.67,2.88,2.41a5.43,5.43,0,0,0,6.28.48c2.45-1.37,4.83-2.86,7.23-4.32a3.23,3.23,0,0,0,1.45-3.49A3.38,3.38,0,0,0,52,44.83.47.47,0,0,0,52,45a3.48,3.48,0,0,1-2.26,4.28l-4.75,2a1.94,1.94,0,0,1-2.76-1l-.8-1.59Zm5.11-41c.1.19.11.23.13.26a10.25,10.25,0,0,1,2.91,4.54.72.72,0,0,0,.55.38c1.92.07,3.84.1,5.76.11a.75.75,0,0,0,.5-.38,5.19,5.19,0,0,0,0-4.9.66.66,0,0,0-.69-.41c-2.23,0-4.47,0-6.71,0A19.59,19.59,0,0,0,42,11.31Zm6,30.32a3.14,3.14,0,0,0,.6-.33c.42-.33.81-.69,1.21-1a1,1,0,0,0,.08-1.58c-.75-.87-1.5-1.73-2.26-2.59a1,1,0,0,0-1.4-.26c-.45.34-.5.81-.12,1.41a1,1,0,0,1-.1,1.3,1.42,1.42,0,0,0-.31.61C45.57,39.78,47.2,41.63,48,41.63ZM18.89,46.31c.05-.65-.22-1.07-.74-1.17A1,1,0,0,0,17,46c-.32,1.14-.63,2.28-.93,3.43a1,1,0,0,0,.7,1.28c.57.17,1.14.33,1.72.47a.92.92,0,0,0,1.2-.68c.18-.58.33-1.18.48-1.77a.91.91,0,0,0-.6-1.19A1,1,0,0,1,18.89,46.31Zm7.9-13.1,1.53.15-.91-1Z"/><path class="cls-1" d="M55.45,62.44c0,.83,0,1.66,0,2.5A1,1,0,0,1,54.52,66c-.57,0-1-.42-1-1.1A53.4,53.4,0,0,0,53,56.17c-.11-.72.24-1.21.84-1.26s1,.34,1,1c.23,2.16.45,4.32.68,6.48Z"/><path class="cls-1" d="M49.27,22.33a.95.95,0,1,1-.94-.95A.94.94,0,0,1,49.27,22.33Z"/><path class="cls-1" d="M32.62,31.15c-.37-.07-1-.15-1.57-.3A.95.95,0,1,1,31.51,29a4,4,0,0,0,4.66-1.55.9.9,0,0,1,1.31-.21.94.94,0,0,1,.18,1.37A6,6,0,0,1,32.62,31.15Z"/><path class="cls-1" d="M31.22,23.25a1,1,0,0,1-.92,1,.95.95,0,1,1,.92-1Z"/><path class="cls-1" d="M36,23.28a.95.95,0,1,1-1.89,0,.95.95,0,0,1,1.89,0Z"/></svg>