<?xml version="1.0" standalone="no"?>
<svg xmlns:xlink="http://www.w3.org/1999/xlink" id="wave" style="transform:rotate(0deg); transition: 0.3s" viewBox="0 0 1440 360" version="1.1" xmlns="http://www.w3.org/2000/svg"><defs><linearGradient id="sw-gradient-0" x1="0" x2="0" y1="1" y2="0"><stop stop-color="rgba(16, 18, 50, 1)" offset="0%"/><stop stop-color="rgba(64, 65, 91, 1)" offset="100%"/></linearGradient></defs><path style="transform:translate(0, 0px); opacity:1" fill="url(#sw-gradient-0)" d="M0,72L48,108C96,144,192,216,288,222C384,228,480,168,576,162C672,156,768,204,864,210C960,216,1056,180,1152,138C1248,96,1344,48,1440,72C1536,96,1632,192,1728,228C1824,264,1920,240,2016,204C2112,168,2208,120,2304,90C2400,60,2496,48,2592,60C2688,72,2784,108,2880,156C2976,204,3072,264,3168,270C3264,276,3360,228,3456,210C3552,192,3648,204,3744,222C3840,240,3936,264,4032,240C4128,216,4224,144,4320,114C4416,84,4512,96,4608,90C4704,84,4800,60,4896,78C4992,96,5088,156,5184,162C5280,168,5376,120,5472,138C5568,156,5664,240,5760,246C5856,252,5952,180,6048,150C6144,120,6240,132,6336,162C6432,192,6528,240,6624,246C6720,252,6816,216,6864,198L6912,180L6912,360L6864,360C6816,360,6720,360,6624,360C6528,360,6432,360,6336,360C6240,360,6144,360,6048,360C5952,360,5856,360,5760,360C5664,360,5568,360,5472,360C5376,360,5280,360,5184,360C5088,360,4992,360,4896,360C4800,360,4704,360,4608,360C4512,360,4416,360,4320,360C4224,360,4128,360,4032,360C3936,360,3840,360,3744,360C3648,360,3552,360,3456,360C3360,360,3264,360,3168,360C3072,360,2976,360,2880,360C2784,360,2688,360,2592,360C2496,360,2400,360,2304,360C2208,360,2112,360,2016,360C1920,360,1824,360,1728,360C1632,360,1536,360,1440,360C1344,360,1248,360,1152,360C1056,360,960,360,864,360C768,360,672,360,576,360C480,360,384,360,288,360C192,360,96,360,48,360L0,360Z"/><defs><linearGradient id="sw-gradient-1" x1="0" x2="0" y1="1" y2="0"><stop stop-color="rgba(16, 18, 50, 1)" offset="0%"/><stop stop-color="rgba(64, 65, 91, 1)" offset="100%"/></linearGradient></defs><path style="transform:translate(0, 50px); opacity:0.9" fill="url(#sw-gradient-1)" d="M0,144L48,168C96,192,192,240,288,216C384,192,480,96,576,84C672,72,768,144,864,168C960,192,1056,168,1152,174C1248,180,1344,216,1440,216C1536,216,1632,180,1728,138C1824,96,1920,48,2016,54C2112,60,2208,120,2304,162C2400,204,2496,228,2592,240C2688,252,2784,252,2880,264C2976,276,3072,300,3168,306C3264,312,3360,300,3456,264C3552,228,3648,168,3744,126C3840,84,3936,60,4032,54C4128,48,4224,60,4320,72C4416,84,4512,96,4608,84C4704,72,4800,36,4896,72C4992,108,5088,216,5184,258C5280,300,5376,276,5472,222C5568,168,5664,84,5760,90C5856,96,5952,192,6048,210C6144,228,6240,168,6336,162C6432,156,6528,204,6624,234C6720,264,6816,276,6864,282L6912,288L6912,360L6864,360C6816,360,6720,360,6624,360C6528,360,6432,360,6336,360C6240,360,6144,360,6048,360C5952,360,5856,360,5760,360C5664,360,5568,360,5472,360C5376,360,5280,360,5184,360C5088,360,4992,360,4896,360C4800,360,4704,360,4608,360C4512,360,4416,360,4320,360C4224,360,4128,360,4032,360C3936,360,3840,360,3744,360C3648,360,3552,360,3456,360C3360,360,3264,360,3168,360C3072,360,2976,360,2880,360C2784,360,2688,360,2592,360C2496,360,2400,360,2304,360C2208,360,2112,360,2016,360C1920,360,1824,360,1728,360C1632,360,1536,360,1440,360C1344,360,1248,360,1152,360C1056,360,960,360,864,360C768,360,672,360,576,360C480,360,384,360,288,360C192,360,96,360,48,360L0,360Z"/></svg>